<svg id="Layer_1" viewBox="0 0 1000 1000" xmlns="http://www.w3.org/2000/svg" data-name="Layer 1" width="300" height="300" version="1.1" xmlns:xlink="http://www.w3.org/1999/xlink" xmlns:svgjs="http://svgjs.dev/svgjs"><g width="100%" height="100%" transform="matrix(1,0,0,1,0,0)"><path d="m169 209v466.07h662v-466.07zm547.19 427.29h-432.38a93.18 93.18 0 0 1 -34.75-179.63 93.34 93.34 0 0 1 84-83.45 93.41 93.41 0 0 1 85.88-57.06 92.47 92.47 0 0 1 14.88 1.2 125.1 125.1 0 0 1 225.18 2.12 125.17 125.17 0 0 1 117.86 153 93.16 93.16 0 0 1 -60.71 163.82z" fill="#45b4b1" fill-opacity="1" data-original-color="#90caf9ff" stroke="none" stroke-opacity="1"/><path d="m116.19 707.07a90 90 0 0 0 89.65 83.93h588.32a90 90 0 0 0 89.65-83.93zm470.63 58h-173.64a16 16 0 0 1 0-32h173.64a16 16 0 1 1 0 32z" fill="#757575" fill-opacity="1" data-original-color="#757575ff" stroke="none" stroke-opacity="1"/><path d="m749.78 492a16 16 0 0 1 -6.4-18.37 93.12 93.12 0 0 0 -88.38-122.22c-1.79 0-3.62 0-5.59.17a16 16 0 0 1 -16-10.51 93.11 93.11 0 0 0 -175.15.39 16 16 0 0 1 -20.09 9.8 61.15 61.15 0 0 0 -78.17 41.84 16 16 0 0 1 -16 11.76h-.35c-.62 0-1.23-.05-1.84-.05a61.24 61.24 0 0 0 -61.21 61.19v1.26.65a16 16 0 0 1 -12 16 61.17 61.17 0 0 0 15.19 120.42h432.4a61.16 61.16 0 0 0 33.59-112.33zm-263.5-15.25a16 16 0 0 1 -22.61-.82l-15.08-16.22v83.88a16 16 0 0 1 -32 0v-83.87l-15.08 16.22a16 16 0 1 1 -23.44-21.79l42.79-46 .42-.42c.17-.18.36-.36.55-.53a6.69 6.69 0 0 1 .58-.5 6.12 6.12 0 0 1 .5-.39 5.3 5.3 0 0 1 .45-.34c.19-.13.38-.27.58-.39s.57-.36.86-.52.39-.21.58-.3a14.39 14.39 0 0 1 2.34-1 14.72 14.72 0 0 1 1.58-.42l.81-.15c.49-.07 1-.12 1.48-.15h.95.83c.56 0 1.1.09 1.64.17a14.6 14.6 0 0 1 2.39.57 14.23 14.23 0 0 1 1.62.61c.22.09.44.2.65.31a6.17 6.17 0 0 1 .72.38c.24.13.47.27.7.42a8.27 8.27 0 0 1 .69.46 7.37 7.37 0 0 1 .65.49 4.12 4.12 0 0 1 .4.33l.4.34q.23.19.45.42c.2.19.4.39.58.59l.25.26 42.55 45.76a16 16 0 0 1 -.78 22.62zm135.65 31.71-42.79 46c-.31.33-.64.65-1 .94a17.22 17.22 0 0 1 -1.19 1 5.6 5.6 0 0 1 -.49.36 13.75 13.75 0 0 1 -1.61 1 5.28 5.28 0 0 1 -.53.27 15.36 15.36 0 0 1 -2.07.82 13.48 13.48 0 0 1 -1.42.38c-.33.08-.67.14-1 .2s-1 .12-1.48.15c-.31 0-.63 0-1 0h-.83c-.56 0-1.1-.09-1.64-.17l-.87-.16a12.58 12.58 0 0 1 -1.52-.41 16.51 16.51 0 0 1 -2.46-1l-.53-.29c-.24-.13-.47-.27-.7-.42l-.57-.37c-.36-.25-.72-.52-1.06-.81s-.38-.31-.56-.48a12.67 12.67 0 0 1 -1-1l-.13-.14-42.58-45.85a16 16 0 1 1 23.43-21.79l15.08 16.22v-83.91a16 16 0 0 1 32 0v83.9l15.08-16.23a16 16 0 0 1 23.44 21.79z" fill="#ffb300" fill-opacity="1" data-original-color="#1e88e5ff" stroke="none" stroke-opacity="1"/><g fill="#fff" opacity=".5"><path d="m159 219v466.07h662v-466.07zm547.19 427.29h-432.38a93.18 93.18 0 0 1 -34.75-179.63 93.34 93.34 0 0 1 84-83.45 93.41 93.41 0 0 1 85.88-57.06 92.47 92.47 0 0 1 14.88 1.2 125.1 125.1 0 0 1 225.18 2.12 125.17 125.17 0 0 1 117.86 153 93.16 93.16 0 0 1 -60.71 163.82z" fill="#ffffff" fill-opacity="1" data-original-color="#ffffffff" stroke="none" stroke-opacity="1"/><path d="m106.19 717.07a90 90 0 0 0 89.65 83.93h588.32a90 90 0 0 0 89.65-83.93zm470.63 58h-173.64a16 16 0 0 1 0-32h173.64a16 16 0 1 1 0 32z" fill="#ffffff" fill-opacity="1" data-original-color="#ffffffff" stroke="none" stroke-opacity="1"/><path d="m739.78 502a16 16 0 0 1 -6.4-18.37 93.12 93.12 0 0 0 -88.38-122.22c-1.79 0-3.62 0-5.59.17a16 16 0 0 1 -16-10.51 93.11 93.11 0 0 0 -175.15.39 16 16 0 0 1 -20.09 9.8 61.15 61.15 0 0 0 -78.17 41.84 16 16 0 0 1 -16 11.76h-.35c-.62 0-1.23-.05-1.84-.05a61.24 61.24 0 0 0 -61.21 61.19v1.26.65a16 16 0 0 1 -12 16 61.17 61.17 0 0 0 15.19 120.42h432.4a61.16 61.16 0 0 0 33.59-112.33zm-263.5-15.25a16 16 0 0 1 -22.61-.82l-15.08-16.22v83.88a16 16 0 0 1 -32 0v-83.87l-15.08 16.22a16 16 0 1 1 -23.44-21.79l42.79-46 .42-.42c.17-.18.36-.36.55-.53a6.69 6.69 0 0 1 .58-.5 6.12 6.12 0 0 1 .5-.39 5.3 5.3 0 0 1 .45-.34c.19-.13.38-.27.58-.39s.57-.36.86-.52.39-.21.58-.3a14.39 14.39 0 0 1 2.34-1 14.72 14.72 0 0 1 1.58-.42l.81-.15c.49-.07 1-.12 1.48-.15h.95.83c.56 0 1.1.09 1.64.17a14.6 14.6 0 0 1 2.39.57 14.23 14.23 0 0 1 1.62.61c.22.09.44.2.65.31a6.17 6.17 0 0 1 .72.38c.24.13.47.27.7.42a8.27 8.27 0 0 1 .69.46 7.37 7.37 0 0 1 .65.49 4.12 4.12 0 0 1 .4.33l.4.34q.23.19.45.42c.2.19.4.39.58.59l.25.26 42.55 45.76a16 16 0 0 1 -.78 22.62zm135.65 31.71-42.79 46c-.31.33-.64.65-1 .94a17.22 17.22 0 0 1 -1.19 1 5.6 5.6 0 0 1 -.49.36 13.75 13.75 0 0 1 -1.61 1 5.28 5.28 0 0 1 -.53.27 15.36 15.36 0 0 1 -2.07.82 13.48 13.48 0 0 1 -1.42.38c-.33.08-.67.14-1 .2s-1 .12-1.48.15c-.31 0-.63 0-1 0h-.83c-.56 0-1.1-.09-1.64-.17l-.87-.16a12.58 12.58 0 0 1 -1.52-.41 16.51 16.51 0 0 1 -2.46-1l-.53-.29c-.24-.13-.47-.27-.7-.42l-.57-.37c-.36-.25-.72-.52-1.06-.81s-.38-.31-.56-.48a12.67 12.67 0 0 1 -1-1l-.13-.14-42.58-45.85a16 16 0 1 1 23.43-21.79l15.08 16.22v-83.91a16 16 0 0 1 32 0v83.9l15.08-16.23a16 16 0 0 1 23.44 21.79z" fill="#ffffff" fill-opacity="1" data-original-color="#ffffffff" stroke="none" stroke-opacity="1"/></g><g fill="#413b32"><path d="m847 177h-694a16 16 0 0 0 -16 16v498.07a16 16 0 0 0 16 16h694a16 16 0 0 0 16-16v-498.07a16 16 0 0 0 -16-16zm-678 498.07v-466.07h662v466.07z" fill="#413b32" fill-opacity="1" data-original-color="#413b32ff" stroke="none" stroke-opacity="1"/><path d="m900 675.07h-800a16 16 0 0 0 -16 16v10.09a122 122 0 0 0 121.84 121.84h588.32a122 122 0 0 0 121.84-121.84v-10.09a16 16 0 0 0 -16-16zm-105.84 115.93h-588.32a90 90 0 0 1 -89.65-83.93h767.62a90 90 0 0 1 -89.65 83.93z" fill="#413b32" fill-opacity="1" data-original-color="#413b32ff" stroke="none" stroke-opacity="1"/><path d="m776.9 472.47a125.17 125.17 0 0 0 -117.9-153 125.1 125.1 0 0 0 -225.23-2.12 92.47 92.47 0 0 0 -14.88-1.2 93.41 93.41 0 0 0 -85.88 57.06 93.34 93.34 0 0 0 -84 83.45 93.18 93.18 0 0 0 34.75 179.63h432.43a93.16 93.16 0 0 0 60.71-163.82zm-60.71 131.82h-432.38a61.17 61.17 0 0 1 -15.19-120.42 16 16 0 0 0 12-16v-.65c0-.42 0-.84 0-1.26a61.24 61.24 0 0 1 61.17-61.17c.61 0 1.22 0 1.84.05h.37a16 16 0 0 0 16-11.76 61.15 61.15 0 0 1 78.22-41.84 16 16 0 0 0 20.09-9.8 93.11 93.11 0 0 1 175.15-.39 16 16 0 0 0 16 10.51c2-.12 3.8-.17 5.59-.17a93.12 93.12 0 0 1 88.4 122.24 16 16 0 0 0 6.4 18.37 61.16 61.16 0 0 1 -33.59 112.27z" fill="#413b32" fill-opacity="1" data-original-color="#413b32ff" stroke="none" stroke-opacity="1"/><path d="m448.59 419v124.61a16 16 0 0 1 -32 0v-124.61a15.91 15.91 0 0 1 4.69-11.31l.55-.53.58-.5c.17-.14.33-.27.5-.39a5.3 5.3 0 0 1 .45-.34c.19-.14.38-.27.58-.39s.57-.36.86-.52.39-.21.58-.3a14.39 14.39 0 0 1 2.34-1 14.72 14.72 0 0 1 1.58-.42l.81-.15c.49-.07 1-.12 1.48-.15h.95.83c.55 0 1.1.09 1.64.17a14.6 14.6 0 0 1 2.39.57 14.23 14.23 0 0 1 1.62.61l.65.31c.24.12.49.24.72.38s.47.27.7.42.46.3.69.46.44.32.65.49a4.12 4.12 0 0 1 .4.33 4.23 4.23 0 0 1 .4.34q.23.19.45.42c.2.19.4.39.58.59l.25.26a16 16 0 0 1 4.08 10.65z" fill="#413b32" fill-opacity="1" data-original-color="#413b32ff" stroke="none" stroke-opacity="1"/><path d="m486.28 476.77a16 16 0 0 1 -22.61-.82l-15.08-16.22-16-17.21-16 17.2-15.08 16.22a16 16 0 1 1 -23.44-21.79l42.79-46 .42-.42.55-.53.58-.5c.17-.14.33-.27.5-.39a5.3 5.3 0 0 1 .45-.34c.19-.14.38-.27.58-.39s.57-.36.86-.52.39-.21.58-.3a14.39 14.39 0 0 1 2.34-1 14.72 14.72 0 0 1 1.58-.42l.81-.15c.49-.07 1-.12 1.48-.15h.95.83c.55 0 1.1.09 1.64.17a15.7 15.7 0 0 1 2.39.57 14.23 14.23 0 0 1 1.62.61l.65.31c.24.12.49.24.72.38s.47.27.7.42.46.3.69.46.44.32.65.49a4.12 4.12 0 0 1 .4.33 4.23 4.23 0 0 1 .4.34q.23.19.45.42c.2.19.39.39.58.59l.25.26 42.55 45.76a16 16 0 0 1 -.78 22.62z" fill="#413b32" fill-opacity="1" data-original-color="#413b32ff" stroke="none" stroke-opacity="1"/><path d="m583.41 419v124.61a15.93 15.93 0 0 1 -5.24 11.84l-.58.5c-.2.17-.4.33-.61.48l-.49.36a13.75 13.75 0 0 1 -1.61 1c-.18.1-.35.19-.53.27a15.36 15.36 0 0 1 -2.07.82 14.16 14.16 0 0 1 -1.42.38c-.33.08-.67.14-1 .2s-1 .12-1.48.15c-.31 0-.63 0-1 0h-.83c-.55 0-1.1-.09-1.64-.17l-.87-.16a12.58 12.58 0 0 1 -1.52-.41 16.51 16.51 0 0 1 -2.46-1l-.53-.29c-.24-.13-.47-.27-.7-.42l-.57-.37c-.36-.25-.72-.52-1.06-.81s-.38-.32-.56-.48a12.67 12.67 0 0 1 -1-1l-.13-.14a15.92 15.92 0 0 1 -4.16-10.76v-124.6a16 16 0 0 1 32 0z" fill="#413b32" fill-opacity="1" data-original-color="#413b32ff" stroke="none" stroke-opacity="1"/><path d="m621.93 508.48-42.79 46c-.31.33-.64.65-1 .94l-.58.5c-.2.17-.4.33-.61.48l-.49.36a13.75 13.75 0 0 1 -1.61 1c-.18.1-.35.19-.53.27a15.36 15.36 0 0 1 -2.07.82 14.16 14.16 0 0 1 -1.42.38c-.33.08-.67.14-1 .2s-1 .12-1.48.15c-.31 0-.63 0-1 0h-.83c-.55 0-1.1-.09-1.64-.17l-.87-.16a15.46 15.46 0 0 1 -1.52-.41 16.51 16.51 0 0 1 -2.46-1l-.53-.29c-.24-.13-.47-.27-.7-.42l-.57-.37c-.36-.25-.72-.52-1.06-.81s-.38-.32-.56-.48a12.67 12.67 0 0 1 -1-1l-.13-.14-42.58-45.85a16 16 0 1 1 23.43-21.79l15.08 16.22 16 17.21 16-17.2 15.08-16.23a16 16 0 0 1 23.44 21.79z" fill="#413b32" fill-opacity="1" data-original-color="#413b32ff" stroke="none" stroke-opacity="1"/><path d="m602.82 749a16 16 0 0 1 -16 16h-173.64a16 16 0 0 1 0-32h173.64a16 16 0 0 1 16 16z" fill="#413b32" fill-opacity="1" data-original-color="#413b32ff" stroke="none" stroke-opacity="1"/></g></g></svg>