<svg id="Layer_1" viewBox="0 0 1000 1000" xmlns="http://www.w3.org/2000/svg" data-name="Layer 1" width="300" height="300" version="1.1" xmlns:xlink="http://www.w3.org/1999/xlink" xmlns:svgjs="http://svgjs.dev/svgjs"><g width="100%" height="100%" transform="matrix(1,0,0,1,0,0)"><g fill="#d32f2f"><path d="m907.59 536.07c5.25-4.33 14.89-12.29 16.33-16.07-1.44-3.78-11.08-11.74-16.33-16.07-12.34-10.2-25.11-20.74-27.25-35.79-2.19-15.37 7.23-29.27 16.34-42.72 3.67-5.4 10.35-15.26 10.92-19.29-2.61-3.18-13.83-8-20-10.6-14.78-6.32-30.06-12.86-36.41-26.76s-1.35-30 3.57-45.4c2-6.28 5.65-17.73 5-21.76-3.41-2.28-15.45-3.71-22-4.5-16-1.9-32.57-3.86-42.64-15.47s-9.68-28.32-9.3-44.46c.16-6.63.45-18.72-1.32-22.41-3.9-1.22-15.8.77-22.32 1.87-15.94 2.67-32.42 5.43-45.38-2.92s-17.18-24.39-21.33-39.94c-1.72-6.44-4.86-18.19-7.61-21.23h-.05c-4.1 0-14.82 5.2-20.7 8.06-14.58 7.07-29.65 14.39-44.5 10-14.61-4.25-23.28-18.4-31.61-32.1-3.49-5.73-9.88-16.2-13.42-18.31-3.89 1.15-12.65 9.12-17.45 13.49-12.07 10.97-24.53 22.31-40.13 22.31s-28.06-11.34-40.11-22.31c-4.8-4.37-13.56-12.34-17.45-13.49-3.54 2.11-9.93 12.58-13.42 18.31-8.35 13.7-17 27.85-31.62 32.14-14.85 4.35-29.92-3-44.5-10-5.88-2.86-16.6-8.06-20.7-8.06h-.05c-2.75 3-5.89 14.79-7.6 21.23-4.15 15.55-8.45 31.64-21.33 39.94s-29.45 5.59-45.39 2.92c-6.52-1.1-18.42-3.09-22.32-1.87-1.77 3.68-1.48 15.78-1.32 22.4.39 16.15.79 32.84-9.3 44.47s-26.63 13.57-42.64 15.47c-6.6.79-18.64 2.21-22.05 4.5-.63 4 3 15.48 5 21.76 4.92 15.42 10 31.36 3.57 45.4s-21.63 20.44-36.41 26.76c-6.15 2.62-17.37 7.42-20 10.6.57 4 7.25 13.89 10.92 19.29 9.11 13.45 18.53 27.35 16.34 42.72-2.14 15.05-14.91 25.59-27.25 35.79-5.25 4.33-14.89 12.29-16.33 16.07 1.44 3.78 11.08 11.74 16.33 16.07 12.34 10.2 25.11 20.74 27.25 35.79 2.19 15.37-7.23 29.27-16.34 42.72-3.67 5.4-10.35 15.26-10.92 19.29 2.61 3.18 13.83 8 20 10.6 14.78 6.32 30.06 12.86 36.41 26.76s1.35 30-3.57 45.4c-2 6.28-5.65 17.73-5 21.76 3.41 2.28 15.45 3.71 22.05 4.5 16 1.9 32.57 3.86 42.64 15.47s9.68 28.32 9.3 44.46c-.16 6.63-.45 18.72 1.32 22.41 3.9 1.22 15.8-.77 22.32-1.87 15.94-2.67 32.42-5.43 45.38 2.92s17.18 24.39 21.33 39.94c1.72 6.44 4.86 18.19 7.61 21.23 4.07 0 14.85-5.19 20.75-8.06 11.53-5.6 23.38-11.35 35.18-11.35a32.88 32.88 0 0 1 9.32 1.31c14.63 4.29 23.27 18.44 31.62 32.14 3.49 5.73 9.88 16.2 13.42 18.31 3.89-1.15 12.65-9.12 17.45-13.49 12.05-11.01 24.51-22.35 40.11-22.35s28.06 11.34 40.11 22.31c4.8 4.37 13.56 12.34 17.45 13.49 3.54-2.11 9.93-12.58 13.42-18.31 8.35-13.7 17-27.85 31.62-32.14 14.85-4.35 29.92 3 44.5 10 5.88 2.86 16.6 8.06 20.7 8.06h.05c2.75-3 5.89-14.79 7.6-21.23 4.15-15.55 8.45-31.64 21.33-39.94s29.45-5.59 45.39-2.92c6.52 1.1 18.42 3.09 22.32 1.87 1.77-3.68 1.48-15.78 1.32-22.4-.39-16.15-.79-32.84 9.3-44.47s26.63-13.57 42.64-15.47c6.6-.79 18.64-2.21 22-4.5.63-4-3-15.48-5-21.76-4.92-15.42-10-31.36-3.57-45.4s21.63-20.44 36.41-26.76c6.15-2.62 17.37-7.42 20-10.6-.57-4-7.25-13.89-10.92-19.29-9.11-13.45-18.53-27.35-16.34-42.72 2.15-15.01 14.92-25.55 27.26-35.75zm-580.28-80.51a90.76 90.76 0 1 1 64.13 26.53 90.77 90.77 0 0 1 -64.13-26.53zm96.43 239.9a56 56 0 0 1 -79.2-79.2l271.72-271.72a56 56 0 0 1 79.2 79.2zm289 17.23a90.69 90.69 0 1 1 0-128.25 90.37 90.37 0 0 1 -.05 128.25z" fill="#45b4b1" fill-opacity="1" data-original-color="#d32f2fff" stroke="none" stroke-opacity="1"/><path d="m432.94 432.94a58.67 58.67 0 1 1 0-83 58.77 58.77 0 0 1 0 83z" fill="#45b4b1" fill-opacity="1" data-original-color="#d32f2fff" stroke="none" stroke-opacity="1"/><path d="m690.07 690.07a58.67 58.67 0 1 1 0-83 58.77 58.77 0 0 1 0 83z" fill="#45b4b1" fill-opacity="1" data-original-color="#d32f2fff" stroke="none" stroke-opacity="1"/><path d="m672.83 401.11-271.72 271.72a24 24 0 1 1 -33.94-33.94l271.72-271.72a24 24 0 1 1 33.94 33.94z" fill="#45b4b1" fill-opacity="1" data-original-color="#d32f2fff" stroke="none" stroke-opacity="1"/></g><path d="m908 540.75c13.15-10.85 28-23.15 28-40.75s-14.89-29.9-28-40.75c-5.19-4.25-14.74-12.15-16-15.67.05-3.83 7.25-14.46 11.14-20.2 9.43-13.91 20.12-29.68 15.27-46.23-4.92-16.8-22.62-24.37-38.24-31-6.22-2.66-17.73-7.58-19.89-10.66-1-3.67 2.87-15.8 5-22.35 5.12-16.07 10.93-34.29 1.54-48.86s-28.48-16.9-45.29-18.89c-6.76-.81-19.29-2.29-22.23-4.68-1.95-3.24-1.65-15.89-1.49-22.72.41-16.9.86-36.05-12.27-47.44s-32-8.21-48.64-5.42c-6.76 1.13-19.27 3.22-22.76 1.73-2.76-2.57-6-14.72-7.76-21.28-4.37-16.38-9.32-34.95-25.19-42.21s-32.91 1.14-48.06 8.5c-6.21 3-17.69 8.6-21.49 8.12-3.34-1.71-9.82-12.34-13.33-18.09-8.86-14.53-18.9-31-36.28-33.47-17.03-2.43-31.03 10.32-43.46 21.57-5.19 4.72-14.8 13.47-18.57 14-3.77-.49-13.38-9.24-18.57-14-12.43-11.25-26.43-24-43.43-21.62-17.38 2.48-27.42 18.94-36.28 33.47-3.51 5.75-10 16.38-13.33 18.09-3.78.47-15.28-5.11-21.49-8.12-15.15-7.36-32.33-15.69-48.06-8.5s-20.84 25.83-25.21 42.21c-1.75 6.56-5 18.71-7.76 21.28-3.49 1.49-16-.6-22.76-1.74-16.65-2.78-35.53-5.95-48.64 5.43s-12.68 30.5-12.27 47.44c.16 6.83.46 19.48-1.49 22.72-2.94 2.39-15.47 3.87-22.23 4.68-16.81 2-35.86 4.25-45.29 18.89s-3.58 32.79 1.54 48.86c2.09 6.55 6 18.68 5 22.35-2.16 3.08-13.67 8-19.89 10.66-15.62 6.68-33.32 14.25-38.24 31-4.85 16.55 5.84 32.32 15.27 46.23 3.91 5.77 11.17 16.48 11.15 20.17-1.23 3.56-10.81 11.5-16.02 15.75-13.11 10.85-28 23.15-28 40.75s14.89 29.9 28 40.75c5.19 4.25 14.74 12.15 16 15.67 0 3.83-7.25 14.46-11.14 20.2-9.43 13.91-20.12 29.68-15.27 46.23 4.92 16.8 22.62 24.37 38.24 31 6.22 2.66 17.73 7.58 19.89 10.66 1 3.67-2.87 15.8-5 22.35-5.12 16.07-10.93 34.29-1.54 48.86s28.48 16.9 45.29 18.89c6.76.81 19.29 2.29 22.23 4.68 1.95 3.24 1.65 15.89 1.49 22.72-.41 16.9-.86 36.05 12.27 47.44s32 8.21 48.64 5.42c6.76-1.13 19.27-3.22 22.76-1.73 2.76 2.57 6 14.72 7.76 21.28 4.37 16.38 9.32 34.95 25.19 42.21s32.91-1.14 48.06-8.5c6.21-3 17.7-8.59 21.49-8.12 3.34 1.71 9.82 12.34 13.33 18.09 8.86 14.53 18.9 31 36.28 33.47a30.09 30.09 0 0 0 4.2.3c15.14 0 27.89-11.61 39.25-21.95 5.19-4.72 14.8-13.47 18.57-14 3.77.49 13.38 9.24 18.57 14 12.44 11.33 26.44 24.08 43.44 21.7 17.38-2.48 27.42-18.94 36.28-33.47 3.51-5.75 10-16.38 13.33-18.09 3.79-.46 15.28 5.11 21.49 8.12 15.16 7.36 32.33 15.7 48.06 8.5s20.82-25.83 25.19-42.21c1.75-6.56 5-18.71 7.76-21.28 3.49-1.49 16 .6 22.76 1.74 16.65 2.78 35.53 6 48.64-5.43s12.7-30.5 12.29-47.44c-.16-6.83-.46-19.48 1.49-22.72 2.94-2.39 15.47-3.87 22.23-4.68 16.81-2 35.86-4.25 45.29-18.89s3.58-32.79-1.54-48.86c-2.09-6.55-6-18.68-5-22.35 2.16-3.08 13.67-8 19.89-10.66 15.62-6.68 33.32-14.25 38.24-31 4.85-16.55-5.84-32.32-15.27-46.23-3.91-5.77-11.17-16.48-11.15-20.17 1.23-3.56 10.81-11.5 16.02-15.75zm-31.28 53.83c3.67 5.4 10.35 15.26 10.92 19.29-2.61 3.18-13.83 8-20 10.6-14.78 6.32-30.06 12.86-36.41 26.76s-1.35 30 3.57 45.4c2 6.28 5.65 17.73 5 21.76-3.41 2.29-15.45 3.71-22 4.5-16 1.9-32.57 3.86-42.64 15.47s-9.69 28.32-9.3 44.47c.16 6.62.45 18.72-1.32 22.4-3.9 1.22-15.8-.77-22.32-1.87-15.94-2.67-32.43-5.43-45.39 2.92s-17.18 24.39-21.33 39.94c-1.71 6.44-4.85 18.19-7.6 21.23h-.05c-4.1 0-14.82-5.2-20.7-8.06-14.58-7.07-29.65-14.39-44.5-10-14.65 4.25-23.32 18.4-31.65 32.1-3.49 5.73-9.88 16.2-13.42 18.31-3.89-1.15-12.65-9.12-17.45-13.49-12.07-10.97-24.53-22.31-40.13-22.31s-28.06 11.34-40.11 22.31c-4.8 4.37-13.56 12.34-17.45 13.49-3.54-2.11-9.93-12.58-13.42-18.31-8.35-13.7-17-27.85-31.62-32.14a32.88 32.88 0 0 0 -9.32-1.31c-11.8 0-23.65 5.75-35.18 11.35-5.9 2.87-16.68 8.08-20.75 8.06-2.75-3-5.89-14.79-7.61-21.23-4.15-15.55-8.44-31.64-21.33-39.94s-29.44-5.59-45.38-2.92c-6.52 1.1-18.42 3.09-22.32 1.87-1.77-3.69-1.48-15.78-1.32-22.41.38-16.14.78-32.83-9.3-44.46s-26.63-13.57-42.64-15.47c-6.6-.79-18.64-2.22-22.05-4.5-.63-4 3-15.48 5-21.76 4.92-15.42 10-31.36 3.57-45.4s-21.63-20.44-36.41-26.76c-6.15-2.63-17.37-7.42-20-10.6.57-4 7.25-13.89 10.92-19.29 9.11-13.45 18.53-27.35 16.34-42.72-2.14-15.05-14.91-25.59-27.25-35.79-5.25-4.33-14.89-12.29-16.33-16.07 1.44-3.78 11.08-11.74 16.33-16.07 12.34-10.2 25.11-20.74 27.25-35.79 2.19-15.37-7.23-29.27-16.34-42.72-3.67-5.4-10.35-15.26-10.92-19.29 2.61-3.18 13.83-8 20-10.6 14.78-6.32 30.06-12.86 36.41-26.76s1.35-30-3.57-45.4c-2-6.28-5.65-17.73-5-21.76 3.41-2.29 15.45-3.71 22.05-4.5 16-1.9 32.57-3.86 42.64-15.47s9.69-28.32 9.3-44.47c-.16-6.62-.45-18.72 1.32-22.4 3.9-1.22 15.8.77 22.32 1.87 15.94 2.67 32.43 5.43 45.39-2.92s17.18-24.39 21.33-39.94c1.71-6.44 4.85-18.19 7.6-21.23h.05c4.1 0 14.82 5.2 20.7 8.06 14.58 7.07 29.65 14.39 44.5 10 14.63-4.29 23.27-18.44 31.62-32.14 3.49-5.73 9.88-16.2 13.42-18.31 3.89 1.15 12.65 9.12 17.45 13.49 12.05 11.01 24.51 22.35 40.11 22.35s28.06-11.34 40.11-22.31c4.8-4.37 13.56-12.34 17.45-13.49 3.54 2.11 9.93 12.58 13.42 18.31 8.35 13.7 17 27.85 31.62 32.14 14.85 4.35 29.92-3 44.5-10 5.88-2.86 16.6-8.06 20.7-8.06h.05c2.75 3 5.89 14.79 7.61 21.23 4.15 15.55 8.44 31.64 21.33 39.94s29.44 5.59 45.38 2.92c6.52-1.1 18.42-3.09 22.32-1.87 1.77 3.69 1.48 15.78 1.32 22.41-.38 16.14-.78 32.83 9.3 44.46s26.63 13.57 42.64 15.47c6.6.79 18.64 2.22 22 4.5.63 4-3 15.48-5 21.76-4.92 15.42-10 31.36-3.57 45.4s21.63 20.44 36.41 26.76c6.15 2.63 17.37 7.42 20 10.6-.57 4-7.25 13.89-10.92 19.29-9.11 13.45-18.53 27.35-16.34 42.72 2.14 15.05 14.91 25.59 27.25 35.79 5.25 4.33 14.89 12.29 16.33 16.07-1.44 3.78-11.08 11.74-16.33 16.07-12.34 10.2-25.11 20.74-27.25 35.79-2.18 15.33 7.24 29.23 16.35 42.68z" fill="#08283f" fill-opacity="1" data-original-color="#08283fff" stroke="none" stroke-opacity="1"/><path d="m435.56 307.31a90.66 90.66 0 1 0 0 128.25 90.77 90.77 0 0 0 0-128.25zm-22.62 105.63a58.67 58.67 0 1 1 0-83 58.77 58.77 0 0 1 0 83z" fill="#08283f" fill-opacity="1" data-original-color="#08283fff" stroke="none" stroke-opacity="1"/><path d="m692.69 564.44a90.66 90.66 0 1 0 0 128.25 90.77 90.77 0 0 0 0-128.25zm-22.62 105.63a58.67 58.67 0 1 1 0-83 58.77 58.77 0 0 1 0 83z" fill="#08283f" fill-opacity="1" data-original-color="#08283fff" stroke="none" stroke-opacity="1"/><path d="m675.46 324.54a56 56 0 0 0 -79.2 0l-271.72 271.72a56 56 0 0 0 79.2 79.2l271.72-271.72a56 56 0 0 0 0-79.2zm-22.63 56.57-271.72 271.72a24 24 0 1 1 -33.94-33.94l271.72-271.72a24 24 0 1 1 33.94 33.94z" fill="#08283f" fill-opacity="1" data-original-color="#08283fff" stroke="none" stroke-opacity="1"/></g></svg>