<svg id="Layer_1" viewBox="0 0 1000 1000" xmlns="http://www.w3.org/2000/svg" data-name="Layer 1" width="300" height="300" version="1.1" xmlns:xlink="http://www.w3.org/1999/xlink" xmlns:svgjs="http://svgjs.dev/svgjs"><g width="100%" height="100%" transform="matrix(1,0,0,1,0,0)"><path d="m318.63 136.63a112.94 112.94 0 0 0 -130.14 0c-47.09 33.57-60.07 98.89-29.55 148.72l59.81 97.65c.18.28.36.56.53.85l34.28 56 34.44-56.18 60.21-98.32c30.48-49.83 17.51-115.15-29.58-148.72zm-65.07 174.87a84.94 84.94 0 1 1 84.94-84.94 85 85 0 0 1 -84.94 84.94z" fill="#ff3d00" fill-opacity="1" data-original-color="#ff3d00ff" stroke="none" stroke-opacity="1"/><path d="m848.45 615h-90.92c-7.65 0-13.87-6.85-13.87-15.27v-20.85c0-8.42 6.22-15.27 13.87-15.27h80.9z" fill="#b3e5fc" fill-opacity="1" data-original-color="#b3e5fcff" stroke="none" stroke-opacity="1"/><path d="m810.18 832.94v.3a50.76 50.76 0 0 1 -101.52 0v-.3a50.76 50.76 0 0 1 101.52 0z" fill="#757575" fill-opacity="1" data-original-color="#757575ff" stroke="none" stroke-opacity="1"/><path d="m331.22 833.24a50.76 50.76 0 1 1 -101.51 0v-.3a50.76 50.76 0 0 1 101.51.3z" fill="#757575" fill-opacity="1" data-original-color="#757575ff" stroke="none" stroke-opacity="1"/><path d="m857.12 659.44-2.43-12.44h-97.16c-25.29 0-45.87-21.21-45.87-47.27v-20.85c0-26.07 20.58-47.27 45.87-47.27h74.65a21.15 21.15 0 0 0 -20.7-17h-136.34a13.92 13.92 0 0 0 -13.9 13.9v288.43h17a82.77 82.77 0 0 1 162.3 0h9.82a7.23 7.23 0 0 0 7.22-7.22v-145.27a26.91 26.91 0 0 0 -.46-5.01zm-137.12 57.73h-21.75a16 16 0 0 1 0-32h21.75a16 16 0 0 1 0 32z" fill="#45b4b1" fill-opacity="1" data-original-color="#4dd0e1ff" stroke="none" stroke-opacity="1"/><path d="m554 408h-243.39l-30.72 50.15a30.87 30.87 0 0 1 -52.67 0l-30.71-50.15h-34.71a10.72 10.72 0 0 0 -10.71 10.71v395.7a2.53 2.53 0 0 0 2.53 2.53h45.7a82.77 82.77 0 0 1 162.29 0h267.63v-333.72a75.34 75.34 0 0 0 -75.24-75.22zm-56.93 266.16a16 16 0 0 1 -16 16h-181.83a16 16 0 0 1 -16-16v-173.41a16 16 0 0 1 16-16h181.83a16 16 0 0 1 16 16z" fill="#45b4b1" fill-opacity="1" data-original-color="#4dd0e1ff" stroke="none" stroke-opacity="1"/><path d="m406.07 516.75v30.25l-11.07-3.54a16.08 16.08 0 0 0 -9.66 0l-11.1 3.54v-30.25z" fill="#f57f17" fill-opacity="1" data-original-color="#f57f17ff" stroke="none" stroke-opacity="1"/><path d="m438.07 516.75v52.07a16 16 0 0 1 -20.83 15.25l-27.08-8.57-27.09 8.57a16 16 0 0 1 -20.83-15.25v-52.07h-27v141.41h149.83v-141.41zm-1.4 119.89h-93a16 16 0 0 1 0-32h93a16 16 0 0 1 0 32z" fill="#fcb64d" fill-opacity="1" data-original-color="#fcb64dff" stroke="none" stroke-opacity="1"/><g fill="#fff" opacity=".5"><path d="m308.63 146.63a112.94 112.94 0 0 0 -130.14 0c-47.09 33.57-60.07 98.89-29.55 148.72l59.81 97.65c.18.28.36.56.53.85l34.28 56 34.44-56.18 60.21-98.32c30.48-49.83 17.51-115.15-29.58-148.72zm-65.07 174.87a84.94 84.94 0 1 1 84.94-84.94 85 85 0 0 1 -84.94 84.94z" fill="#ffffff" fill-opacity="1" data-original-color="#ffffffff" stroke="none" stroke-opacity="1"/><path d="m838.45 625h-90.92c-7.65 0-13.87-6.85-13.87-15.27v-20.85c0-8.42 6.22-15.27 13.87-15.27h80.9z" fill="#ffffff" fill-opacity="1" data-original-color="#ffffffff" stroke="none" stroke-opacity="1"/><path d="m800.18 842.94v.3a50.76 50.76 0 0 1 -101.52 0v-.3a50.76 50.76 0 0 1 101.52 0z" fill="#ffffff" fill-opacity="1" data-original-color="#ffffffff" stroke="none" stroke-opacity="1"/><path d="m321.22 843.24a50.76 50.76 0 1 1 -101.51 0v-.3a50.76 50.76 0 0 1 101.51.3z" fill="#ffffff" fill-opacity="1" data-original-color="#ffffffff" stroke="none" stroke-opacity="1"/><path d="m847.12 669.44-2.43-12.44h-97.16c-25.29 0-45.87-21.21-45.87-47.27v-20.85c0-26.07 20.58-47.27 45.87-47.27h74.65a21.15 21.15 0 0 0 -20.7-17h-136.34a13.92 13.92 0 0 0 -13.9 13.9v288.43h17a82.77 82.77 0 0 1 162.3 0h9.82a7.23 7.23 0 0 0 7.22-7.22v-145.27a26.91 26.91 0 0 0 -.46-5.01zm-137.12 57.73h-21.75a16 16 0 0 1 0-32h21.75a16 16 0 0 1 0 32z" fill="#ffffff" fill-opacity="1" data-original-color="#ffffffff" stroke="none" stroke-opacity="1"/><path d="m544 418h-243.39l-30.72 50.15a30.87 30.87 0 0 1 -52.67 0l-30.71-50.15h-34.71a10.72 10.72 0 0 0 -10.71 10.71v395.7a2.53 2.53 0 0 0 2.53 2.53h45.7a82.77 82.77 0 0 1 162.29 0h267.63v-333.72a75.34 75.34 0 0 0 -75.24-75.22zm-56.93 266.16a16 16 0 0 1 -16 16h-181.83a16 16 0 0 1 -16-16v-173.41a16 16 0 0 1 16-16h181.83a16 16 0 0 1 16 16z" fill="#ffffff" fill-opacity="1" data-original-color="#ffffffff" stroke="none" stroke-opacity="1"/><path d="m396.07 526.75v30.25l-11.07-3.54a16.08 16.08 0 0 0 -9.66 0l-11.1 3.54v-30.25z" fill="#ffffff" fill-opacity="1" data-original-color="#ffffffff" stroke="none" stroke-opacity="1"/><path d="m428.07 526.75v52.07a16 16 0 0 1 -20.83 15.25l-27.08-8.57-27.09 8.57a16 16 0 0 1 -20.83-15.25v-52.07h-27v141.41h149.83v-141.41zm-1.4 119.89h-93a16 16 0 0 1 0-32h93a16 16 0 0 1 0 32z" fill="#ffffff" fill-opacity="1" data-original-color="#ffffffff" stroke="none" stroke-opacity="1"/></g><g fill="#413b32"><path d="m394 198.75a141.52 141.52 0 0 0 -56.78-88.18 145 145 0 0 0 -167.3 0 141.52 141.52 0 0 0 -56.78 88.18 143.92 143.92 0 0 0 18.52 103.32l45.25 73.93 19.6 32 30.71 50.15a30.87 30.87 0 0 0 52.67 0l30.72-50.15 19.6-32 45.26-73.9a143.92 143.92 0 0 0 18.53-103.35zm-45.81 86.6-60.19 98.32-34.41 56.18-34.28-56c-.17-.29-.35-.57-.53-.85l-59.81-97.67c-30.52-49.83-17.54-115.15 29.55-148.72a112.94 112.94 0 0 1 130.14 0c47.06 33.59 60.03 98.91 29.52 148.74z" fill="#413b32" fill-opacity="1" data-original-color="#413b32ff" stroke="none" stroke-opacity="1"/><path d="m253.56 141.62a84.94 84.94 0 1 0 84.94 84.94 85 85 0 0 0 -84.94-84.94zm0 137.88a52.94 52.94 0 1 1 52.94-52.94 53 53 0 0 1 -52.94 52.94z" fill="#413b32" fill-opacity="1" data-original-color="#413b32ff" stroke="none" stroke-opacity="1"/><path d="m481.07 484.75h-181.83a16 16 0 0 0 -16 16v173.41a16 16 0 0 0 16 16h181.83a16 16 0 0 0 16-16v-173.41a16 16 0 0 0 -16-16zm-16 173.41h-149.83v-141.41h149.83z" fill="#413b32" fill-opacity="1" data-original-color="#413b32ff" stroke="none" stroke-opacity="1"/><path d="m438.07 500.75v68.07a16 16 0 0 1 -20.83 15.25l-27.08-8.57-27.09 8.57a16 16 0 0 1 -20.83-15.25v-68.07a16 16 0 0 1 32 0v46.25l11.09-3.51a16.08 16.08 0 0 1 9.66 0l11.08 3.51v-46.25a16 16 0 0 1 32 0z" fill="#413b32" fill-opacity="1" data-original-color="#413b32ff" stroke="none" stroke-opacity="1"/><path d="m452.67 620.64a16 16 0 0 1 -16 16h-93a16 16 0 0 1 0-32h93a16 16 0 0 1 16 16z" fill="#413b32" fill-opacity="1" data-original-color="#413b32ff" stroke="none" stroke-opacity="1"/><path d="m889.61 664.45v145.27a39.27 39.27 0 0 1 -39.22 39.22h-24.21a16 16 0 1 1 0-32h24.21a7.23 7.23 0 0 0 7.22-7.22v-145.27a26.91 26.91 0 0 0 -.49-5l-2.43-12.45-6.24-32-10-51.37-6.25-31.93s0-.06 0-.09a21.15 21.15 0 0 0 -20.7-17h-136.36a13.92 13.92 0 0 0 -13.9 13.9v288.43h31.42a16 16 0 0 1 0 32h-47.42a16 16 0 0 1 -16-16v-304.42a46 46 0 0 1 32-43.74 45.37 45.37 0 0 1 13.9-2.16h136.34a53.22 53.22 0 0 1 52.13 43l3.64 18.69c0 .14.06.27.08.4l16.18 83 .06.29 5 25.42a58.22 58.22 0 0 1 1.04 11.03z" fill="#413b32" fill-opacity="1" data-original-color="#413b32ff" stroke="none" stroke-opacity="1"/><path d="m883.86 631a16 16 0 0 1 -16 16h-110.33c-25.29 0-45.87-21.21-45.87-47.27v-20.85c0-26.07 20.58-47.27 45.87-47.27h94.07a16 16 0 0 1 15.65 12.66c0 .14.06.27.08.4a16 16 0 0 1 -15.73 18.94h-94.07c-7.65 0-13.87 6.85-13.87 15.27v20.83c0 8.42 6.22 15.27 13.87 15.27h110.33a16 16 0 0 1 15.65 12.66l.06.29a16.17 16.17 0 0 1 .29 3.07z" fill="#413b32" fill-opacity="1" data-original-color="#413b32ff" stroke="none" stroke-opacity="1"/><path d="m736 701.17a16 16 0 0 1 -16 16h-21.75a16 16 0 0 1 0-32h21.75a16 16 0 0 1 16 16z" fill="#413b32" fill-opacity="1" data-original-color="#413b32ff" stroke="none" stroke-opacity="1"/><path d="m840.57 816.94a82.76 82.76 0 0 0 -163.91 16.3 82 82 0 0 0 1.5 15.7 82.76 82.76 0 0 0 162.52 0 83.12 83.12 0 0 0 -.11-32zm-30.39 16.3a50.76 50.76 0 0 1 -101.52 0v-.3a50.76 50.76 0 0 1 101.52 0z" fill="#413b32" fill-opacity="1" data-original-color="#413b32ff" stroke="none" stroke-opacity="1"/><path d="m361.61 816.94a82.76 82.76 0 0 0 -163.9 16.3 82 82 0 0 0 1.5 15.7 82.76 82.76 0 0 0 162.51 0 83.12 83.12 0 0 0 -.11-32zm-81.15 67.06a50.81 50.81 0 0 1 -50.75-50.76v-.3a50.76 50.76 0 1 1 50.75 51.06z" fill="#413b32" fill-opacity="1" data-original-color="#413b32ff" stroke="none" stroke-opacity="1"/><path d="m661.24 483.22v349.72a16 16 0 0 1 -16 16h-298a16 16 0 0 1 0-32h282v-333.72a75.34 75.34 0 0 0 -75.24-75.22h-252.35a16 16 0 1 1 0-32h252.35a107.38 107.38 0 0 1 107.24 107.22z" fill="#413b32" fill-opacity="1" data-original-color="#413b32ff" stroke="none" stroke-opacity="1"/><path d="m229.71 832.94a16 16 0 0 1 -16 16h-60.09a34.57 34.57 0 0 1 -34.53-34.53v-395.73a42.76 42.76 0 0 1 42.71-42.68h43.68a16 16 0 0 1 13.27 7c.18.28.36.56.53.85a16 16 0 0 1 -13.8 24.1h-43.68a10.72 10.72 0 0 0 -10.71 10.71v395.75a2.53 2.53 0 0 0 2.53 2.53h60.09a16 16 0 0 1 16 16z" fill="#413b32" fill-opacity="1" data-original-color="#413b32ff" stroke="none" stroke-opacity="1"/></g></g></svg>