<svg id="Layer_1" viewBox="0 0 1000 1000" xmlns="http://www.w3.org/2000/svg" data-name="Layer 1" width="300" height="300" version="1.1" xmlns:xlink="http://www.w3.org/1999/xlink" xmlns:svgjs="http://svgjs.dev/svgjs"><g width="100%" height="100%" transform="matrix(1,0,0,1,0,0)"><path d="m500 116c-211.74 0-384 172.26-384 384s172.26 384 384 384 384-172.26 384-384-172.26-384-384-384zm248.19 632.19a351 351 0 1 1 102.81-248.19 348.66 348.66 0 0 1 -102.81 248.19z" fill="#45b4b1" fill-opacity="1" data-original-color="#29b6f6ff" stroke="none" stroke-opacity="1"/><path d="m725.57 274.43a319 319 0 1 0 93.43 225.57 316.92 316.92 0 0 0 -93.43-225.57zm-146 455.87a54.3 54.3 0 1 1 -108.6 0v-185.69l-1.39 1.39a54.06 54.06 0 0 1 -37.42 14.93h-.73a54.41 54.41 0 0 1 -37-93.65l43.45-41.72a83.08 83.08 0 0 1 141.74 58.84zm-73.36-366.79a74.06 74.06 0 1 1 74.05-74.05 74.14 74.14 0 0 1 -74.05 74.05z" fill="#80deea" fill-opacity="1" data-original-color="#80deeaff" stroke="none" stroke-opacity="1"/><path d="m547.62 484.4v245.9a22.3 22.3 0 1 1 -44.6 0v-222.92a16 16 0 0 0 -27-11.61l-28.45 27a22.41 22.41 0 0 1 -30.94-32.42l43.57-41.82.23-.23a51.08 51.08 0 0 1 87.2 36.12z" fill="#ffc400" fill-opacity="1" data-original-color="#ffc400ff" stroke="none" stroke-opacity="1"/><path d="m548.26 289.46a42.06 42.06 0 1 1 -42.05-42.06 42.1 42.1 0 0 1 42.05 42.06z" fill="#ffc400" fill-opacity="1" data-original-color="#ffc400ff" stroke="none" stroke-opacity="1"/><g fill="#fff" opacity=".5"><path d="m490 126c-211.74 0-384 172.26-384 384s172.26 384 384 384 384-172.26 384-384-172.26-384-384-384zm248.19 632.19a351 351 0 1 1 102.81-248.19 348.66 348.66 0 0 1 -102.81 248.19z" fill="#ffffff" fill-opacity="1" data-original-color="#ffffffff" stroke="none" stroke-opacity="1"/><path d="m715.57 284.43a319 319 0 1 0 93.43 225.57 316.92 316.92 0 0 0 -93.43-225.57zm-146 455.87a54.3 54.3 0 1 1 -108.6 0v-185.69l-1.39 1.39a54.06 54.06 0 0 1 -37.42 14.93h-.73a54.41 54.41 0 0 1 -37-93.65l43.45-41.72a83.08 83.08 0 0 1 141.74 58.84zm-73.36-366.79a74.06 74.06 0 1 1 74.05-74.05 74.14 74.14 0 0 1 -74.05 74.05z" fill="#ffffff" fill-opacity="1" data-original-color="#ffffffff" stroke="none" stroke-opacity="1"/><path d="m537.62 494.4v245.9a22.3 22.3 0 1 1 -44.6 0v-222.92a16 16 0 0 0 -27-11.61l-28.45 27a22.41 22.41 0 0 1 -30.94-32.42l43.57-41.82.23-.23a51.08 51.08 0 0 1 87.2 36.12z" fill="#ffffff" fill-opacity="1" data-original-color="#ffffffff" stroke="none" stroke-opacity="1"/><path d="m538.26 299.46a42.06 42.06 0 1 1 -42.05-42.06 42.1 42.1 0 0 1 42.05 42.06z" fill="#ffffff" fill-opacity="1" data-original-color="#ffffffff" stroke="none" stroke-opacity="1"/></g><g fill="#413b32"><path d="m883.3 338.07a417.29 417.29 0 1 0 32.7 161.93 414.53 414.53 0 0 0 -32.7-161.93zm-383.3 545.93c-211.74 0-384-172.26-384-384s172.26-384 384-384 384 172.26 384 384-172.26 384-384 384z" fill="#413b32" fill-opacity="1" data-original-color="#413b32ff" stroke="none" stroke-opacity="1"/><path d="m748.19 251.81a351 351 0 1 0 102.81 248.19 348.66 348.66 0 0 0 -102.81-248.19zm-22.62 473.76a319 319 0 1 1 93.43-225.57 316.92 316.92 0 0 1 -93.43 225.57z" fill="#413b32" fill-opacity="1" data-original-color="#413b32ff" stroke="none" stroke-opacity="1"/><path d="m528.33 407.64a82.84 82.84 0 0 0 -90.42 17.89l-43.45 41.72a54.41 54.41 0 0 0 37 93.65h.73a54.06 54.06 0 0 0 37.39-14.9l1.44-1.36v185.66a54.3 54.3 0 1 0 108.6 0v-245.9a82.84 82.84 0 0 0 -51.29-76.76zm19.29 322.66a22.3 22.3 0 1 1 -44.6 0v-222.92a16 16 0 0 0 -27-11.61l-28.45 27a22.41 22.41 0 0 1 -30.94-32.42l43.57-41.82.23-.23a51.08 51.08 0 0 1 87.2 36.12z" fill="#413b32" fill-opacity="1" data-original-color="#413b32ff" stroke="none" stroke-opacity="1"/><path d="m506.21 215.4a74.06 74.06 0 1 0 74.05 74.06 74.14 74.14 0 0 0 -74.05-74.06zm0 116.11a42.06 42.06 0 1 1 42.05-42.05 42.11 42.11 0 0 1 -42.05 42.05z" fill="#413b32" fill-opacity="1" data-original-color="#413b32ff" stroke="none" stroke-opacity="1"/></g></g></svg>