<svg id="Layer_1" viewBox="0 0 1000 1000" xmlns="http://www.w3.org/2000/svg" data-name="Layer 1" width="300" height="300" version="1.1" xmlns:xlink="http://www.w3.org/1999/xlink" xmlns:svgjs="http://svgjs.dev/svgjs"><g width="100%" height="100%" transform="matrix(1,0,0,1,0,0)"><path d="m510.61 651.52v-72a16 16 0 0 0 -16-16h-378.61v-127h378.61a16 16 0 0 0 16-16v-72l187.5 151.48z" fill="#ffb300" fill-opacity="1" data-original-color="#7cb342ff" stroke="none" stroke-opacity="1"/><path d="m884 290.54v418.92a108.5 108.5 0 0 1 -108.38 108.38h-418.92a108.5 108.5 0 0 1 -108.38-108.38v-114h230.29v89.54a16 16 0 0 0 26.06 12.44l229-185a16 16 0 0 0 0-24.88l-228.95-185a16 16 0 0 0 -26.11 12.44v89.5h-230.29v-114a108.5 108.5 0 0 1 108.38-108.34h418.92a108.5 108.5 0 0 1 108.38 108.38z" fill="#45b4b1" fill-opacity="1" data-original-color="#90caf9ff" stroke="none" stroke-opacity="1"/><g fill="#fff" opacity=".5"><path d="m500.61 661.52v-72a16 16 0 0 0 -16-16h-378.61v-127h378.61a16 16 0 0 0 16-16v-72l187.5 151.48z" fill="#ffffff" fill-opacity="1" data-original-color="#ffffffff" stroke="none" stroke-opacity="1"/><path d="m874 300.54v418.92a108.5 108.5 0 0 1 -108.38 108.38h-418.92a108.5 108.5 0 0 1 -108.38-108.38v-114h230.29v89.54a16 16 0 0 0 26.06 12.44l229-185a16 16 0 0 0 0-24.88l-228.95-185a16 16 0 0 0 -26.11 12.44v89.5h-230.29v-114a108.5 108.5 0 0 1 108.38-108.34h418.92a108.5 108.5 0 0 1 108.38 108.38z" fill="#ffffff" fill-opacity="1" data-original-color="#ffffffff" stroke="none" stroke-opacity="1"/></g><g fill="#413b32"><path d="m739.57 500a16 16 0 0 1 -6 12.44l-228.95 185a16 16 0 0 1 -26.01-12.44v-105.5a16 16 0 0 1 32 0v72l187.5-151.5-187.5-151.52v72a16 16 0 0 1 -32 0v-105.48a16 16 0 0 1 26.06-12.44l229 185a16 16 0 0 1 5.9 12.44z" fill="#413b32" fill-opacity="1" data-original-color="#413b32ff" stroke="none" stroke-opacity="1"/><path d="m510.61 579.5a16 16 0 0 1 -16 16h-394.61a16 16 0 0 1 -16-16v-159a16 16 0 0 1 16-16h394.61a16 16 0 0 1 0 32h-378.61v127h378.61a16 16 0 0 1 16 16z" fill="#413b32" fill-opacity="1" data-original-color="#413b32ff" stroke="none" stroke-opacity="1"/><path d="m916 290.54v418.92c0 77.41-63 140.38-140.38 140.38h-418.92c-77.41 0-140.38-63-140.38-140.38v-130a16 16 0 0 1 32 0v130a108.5 108.5 0 0 0 108.38 108.38h418.92a108.5 108.5 0 0 0 108.38-108.38v-418.92a108.5 108.5 0 0 0 -108.38-108.38h-418.92a108.5 108.5 0 0 0 -108.38 108.38v130a16 16 0 0 1 -32 0v-130c0-77.41 63-140.38 140.38-140.38h418.92c77.38 0 140.38 62.97 140.38 140.38z" fill="#413b32" fill-opacity="1" data-original-color="#413b32ff" stroke="none" stroke-opacity="1"/></g></g></svg>