<svg id="Layer_1" viewBox="0 0 1000 1000" xmlns="http://www.w3.org/2000/svg" data-name="Layer 1" width="300" height="300" version="1.1" xmlns:xlink="http://www.w3.org/1999/xlink" xmlns:svgjs="http://svgjs.dev/svgjs"><g width="100%" height="100%" transform="matrix(1,0,0,1,0,0)"><path d="m400.94 858.56a25.32 25.32 0 0 1 -25.44 25.44 25.75 25.75 0 0 1 -9.78-1.91 25.06 25.06 0 0 1 -8.24-5.51l-185.81-185.8a25.49 25.49 0 0 1 36.05-36l20.63 20.63 144.55 144.5 20.63 20.63a25.29 25.29 0 0 1 7.41 18.02z" fill="#c0ca33" fill-opacity="1" data-original-color="#c0ca33ff" stroke="none" stroke-opacity="1"/><path d="m835.75 528.08a23.63 23.63 0 0 1 -7 16.79l-141.67 141.7a31.13 31.13 0 0 1 -22.18 9.19h-151.37a93.79 93.79 0 0 0 -66.76 27.64l-62.56 62.6-121.92-122 73-73a62.87 62.87 0 0 1 44.13-18.29h268.25a23.75 23.75 0 0 1 0 47.49h-136.45a16 16 0 0 0 0 32h136.46a55.8 55.8 0 0 0 55.32-48.66l92.24-92.24a23.67 23.67 0 0 1 16.8-7 23.75 23.75 0 0 1 23.74 23.74z" fill="#fbcbbd" fill-opacity="1" data-original-color="#fbcbbdff" stroke="none" stroke-opacity="1"/><path d="m287.86 116h114.82v42.97h-114.82z" fill="#ffc000" fill-opacity="1" data-original-color="#78909cff" stroke="none" stroke-opacity="1"/><path d="m543.99 116h114.82v42.97h-114.82z" fill="#ffc000" fill-opacity="1" data-original-color="#78909cff" stroke="none" stroke-opacity="1"/><path d="m635.92 191v240.71h-325.17v-240.71h91.93v59a16.32 16.32 0 0 0 .09 1.71c0 .29.07.57.11.85s.1.57.16.85.13.56.21.83.15.53.24.79a.26.26 0 0 0 0 .11c.06.19.13.37.21.56a6 6 0 0 0 .26.66c.08.18.16.37.25.55a.34.34 0 0 0 .06.12c.09.19.19.39.29.58a15.84 15.84 0 0 0 2 2.87c.16.19.33.38.51.56s.3.32.46.46a3.4 3.4 0 0 0 .34.32l.53.47a16 16 0 0 0 3.39 2.17c.21.11.42.2.64.29a15.54 15.54 0 0 0 2.18.74l.41.1c.33.08.66.15 1 .2l.61.09.66.07h.56.81a16.32 16.32 0 0 0 1.71-.09 14 14 0 0 0 1.7-.28c.28-.06.56-.12.83-.2s.53-.15.79-.24h.11c.19-.07.38-.13.56-.21l.66-.26.49-.22.61-.31.5-.28.44-.26a11.86 11.86 0 0 0 1.13-.77 13.14 13.14 0 0 0 1.36-1.13c.12-.1.24-.22.35-.33l.48-.49c.19-.2.37-.41.56-.63l.09-.1 42.28-50.68 42.29 50.68.09.1s0 0 0 0c.19.22.37.43.56.63l.48.49c.11.11.23.23.35.33a14.29 14.29 0 0 0 1.36 1.13 12.48 12.48 0 0 0 1.22.83l.09.05a8.2 8.2 0 0 0 .76.43l.61.31.49.22.66.26.56.21h.11c.26.09.52.17.79.24s.55.14.83.2a14 14 0 0 0 1.7.28 16.32 16.32 0 0 0 1.74.14h.81.56l.66-.07c.2 0 .41-.05.61-.09s.66-.12 1-.2l.41-.1a15.33 15.33 0 0 0 2.28-.78l.54-.25a13.69 13.69 0 0 0 1.63-.9c.21-.12.4-.26.6-.39.39-.27.78-.57 1.15-.88.22-.19.43-.37.63-.56l.49-.48c.11-.11.23-.23.33-.35a15.89 15.89 0 0 0 2.37-3.28l.29-.58.06-.12c.09-.18.17-.37.25-.55s.18-.44.26-.66.15-.37.21-.56a.61.61 0 0 0 0-.11c.09-.26.17-.52.24-.79s.11-.4.15-.6a2.88 2.88 0 0 0 .09-.4c.1-.51.18-1 .24-1.53a16.32 16.32 0 0 0 .09-1.71v-59.06z" fill="#45b4b1" fill-opacity="1" data-original-color="#f9bf2cff" stroke="none" stroke-opacity="1"/><path d="m512 116v89.8l-26.37-31.6a16 16 0 0 0 -24.57 0l-26.37 31.6v-89.8z" fill="#e42c2c" fill-opacity="1" data-original-color="#e53a35ff" stroke="none" stroke-opacity="1"/><g fill="#fff" opacity=".5"><path d="m390.94 868.56a25.32 25.32 0 0 1 -25.44 25.44 25.75 25.75 0 0 1 -9.78-1.91 25.06 25.06 0 0 1 -8.24-5.51l-185.81-185.8a25.49 25.49 0 0 1 36.05-36l20.63 20.63 144.55 144.5 20.63 20.63a25.29 25.29 0 0 1 7.41 18.02z" fill="#ffffff" fill-opacity="1" data-original-color="#ffffffff" stroke="none" stroke-opacity="1"/><path d="m825.75 538.08a23.63 23.63 0 0 1 -7 16.79l-141.67 141.7a31.13 31.13 0 0 1 -22.18 9.19h-151.37a93.79 93.79 0 0 0 -66.76 27.64l-62.56 62.6-121.92-122 73-73a62.87 62.87 0 0 1 44.13-18.29h268.25a23.75 23.75 0 0 1 0 47.49h-136.45a16 16 0 0 0 0 32h136.46a55.8 55.8 0 0 0 55.32-48.66l92.24-92.24a23.67 23.67 0 0 1 16.8-7 23.75 23.75 0 0 1 23.74 23.74z" fill="#ffffff" fill-opacity="1" data-original-color="#ffffffff" stroke="none" stroke-opacity="1"/><path d="m277.86 126h114.82v42.97h-114.82z" fill="#ffffff" fill-opacity="1" data-original-color="#ffffffff" stroke="none" stroke-opacity="1"/><path d="m533.99 126h114.82v42.97h-114.82z" fill="#ffffff" fill-opacity="1" data-original-color="#ffffffff" stroke="none" stroke-opacity="1"/><path d="m625.92 201v240.71h-325.17v-240.71h91.93v59a16.32 16.32 0 0 0 .09 1.71c0 .29.07.57.11.85s.1.57.16.85.13.56.21.83.15.53.24.79a.26.26 0 0 0 0 .11c.06.19.13.37.21.56a6 6 0 0 0 .26.66c.08.18.16.37.25.55a.34.34 0 0 0 .06.12c.09.19.19.39.29.58a15.84 15.84 0 0 0 2 2.87c.16.19.33.38.51.56s.3.32.46.46a3.4 3.4 0 0 0 .34.32l.53.47a16 16 0 0 0 3.39 2.17c.21.11.42.2.64.29a15.54 15.54 0 0 0 2.18.74l.41.1c.33.08.66.15 1 .2l.61.09.66.07h.56.81a16.32 16.32 0 0 0 1.71-.09 14 14 0 0 0 1.7-.28c.28-.06.56-.12.83-.2s.53-.15.79-.24h.11c.19-.07.38-.13.56-.21l.66-.26.49-.22.61-.31.5-.28.44-.26a11.86 11.86 0 0 0 1.13-.77 13.14 13.14 0 0 0 1.36-1.13c.12-.1.24-.22.35-.33l.48-.49c.19-.2.37-.41.56-.63l.09-.1 42.28-50.68 42.29 50.68.09.1s0 0 0 0c.19.22.37.43.56.63l.48.49c.11.11.23.23.35.33a14.29 14.29 0 0 0 1.36 1.13 12.48 12.48 0 0 0 1.22.83l.09.05a8.2 8.2 0 0 0 .76.43l.61.31.49.22.66.26.56.21h.11c.26.09.52.17.79.24s.55.14.83.2a14 14 0 0 0 1.7.28 16.32 16.32 0 0 0 1.74.14h.81.56l.66-.07c.2 0 .41-.05.61-.09s.66-.12 1-.2l.41-.1a15.33 15.33 0 0 0 2.28-.78l.54-.25a13.69 13.69 0 0 0 1.63-.9c.21-.12.4-.26.6-.39.39-.27.78-.57 1.15-.88.22-.19.43-.37.63-.56l.49-.48c.11-.11.23-.23.33-.35a15.89 15.89 0 0 0 2.37-3.28l.29-.58.06-.12c.09-.18.17-.37.25-.55s.18-.44.26-.66.15-.37.21-.56a.61.61 0 0 0 0-.11c.09-.26.17-.52.24-.79s.11-.4.15-.6a2.88 2.88 0 0 0 .09-.4c.1-.51.18-1 .24-1.53a16.32 16.32 0 0 0 .09-1.71v-59.06z" fill="#ffffff" fill-opacity="1" data-original-color="#ffffffff" stroke="none" stroke-opacity="1"/><path d="m502 126v89.8l-26.37-31.6a16 16 0 0 0 -24.57 0l-26.37 31.6v-89.8z" fill="#ffffff" fill-opacity="1" data-original-color="#ffffffff" stroke="none" stroke-opacity="1"/></g><g fill="#423b32"><path d="m867.75 528.08a55.35 55.35 0 0 1 -16.34 39.42l-141.7 141.7a62.93 62.93 0 0 1 -44.81 18.56h-151.37a62 62 0 0 0 -44.13 18.24l-73.87 73.87a16 16 0 1 1 -22.63-22.63l73.87-73.87a93.79 93.79 0 0 1 66.76-27.64h151.37a31.13 31.13 0 0 0 22.18-9.19l141.71-141.7a23.74 23.74 0 1 0 -33.58-33.57l-92.21 92.27-4.24 4.24a16 16 0 0 1 -22.62-22.63l18.58-18.58 77.9-77.9a55.38 55.38 0 0 1 39.38-16.33 55.74 55.74 0 0 1 55.74 55.74z" fill="#423b32" fill-opacity="1" data-original-color="#423b32ff" stroke="none" stroke-opacity="1"/><path d="m703.41 596.48a57 57 0 0 1 -.44 7.06 55.8 55.8 0 0 1 -55.29 48.68h-136.46a16 16 0 0 1 0-32h136.45a23.75 23.75 0 0 0 0-47.49h-268.22a62.87 62.87 0 0 0 -44.13 18.27l-73 73-11.32 11.36a16 16 0 1 1 -22.62-22.63l11.31-11.32 73-73a93.86 93.86 0 0 1 66.75-27.66h268.23a55.79 55.79 0 0 1 55.74 55.75z" fill="#423b32" fill-opacity="1" data-original-color="#423b32ff" stroke="none" stroke-opacity="1"/><path d="m416.15 817.91-31.94-31.91-121.92-122-31.94-31.9a57.49 57.49 0 0 0 -81.35 81.3l185.85 185.81a57.49 57.49 0 0 0 81.3-81.3zm-22.62 58.67a25.3 25.3 0 0 1 -18 7.42 25.75 25.75 0 0 1 -9.78-1.91 25.06 25.06 0 0 1 -8.24-5.51l-185.84-185.8a25.49 25.49 0 0 1 36.05-36l20.63 20.63 144.55 144.5 20.63 20.63a25.62 25.62 0 0 1 0 36z" fill="#423b32" fill-opacity="1" data-original-color="#423b32ff" stroke="none" stroke-opacity="1"/><path d="m418.68 191h-16v-32h16a16 16 0 0 1 0 32z" fill="#423b32" fill-opacity="1" data-original-color="#423b32ff" stroke="none" stroke-opacity="1"/><path d="m667.92 175v272.71a16 16 0 0 1 -16 16h-357.17a16 16 0 0 1 -16-16v-256.71h32v240.71h325.17v-240.71h-107.92a16 16 0 0 1 0-32h123.92a16 16 0 0 1 16 16z" fill="#423b32" fill-opacity="1" data-original-color="#423b32ff" stroke="none" stroke-opacity="1"/><path d="m402.68 159v32h-123.93v-16a16 16 0 0 1 16-16z" fill="#423b32" fill-opacity="1" data-original-color="#423b32ff" stroke="none" stroke-opacity="1"/><path d="m434.68 175a16 16 0 0 1 -16 16h-16v-32h16a16 16 0 0 1 16 16z" fill="#423b32" fill-opacity="1" data-original-color="#423b32ff" stroke="none" stroke-opacity="1"/><path d="m690.81 100v75a16 16 0 0 1 -16 16h-146.81a16 16 0 0 1 0-32h130.81v-43h-370.95v43h6.89a16 16 0 0 0 -16 16v16h-6.89a16 16 0 0 1 -16-16v-75a16 16 0 0 1 16-16h402.95a16 16 0 0 1 16 16z" fill="#423b32" fill-opacity="1" data-original-color="#423b32ff" stroke="none" stroke-opacity="1"/><path d="m544 100v149.94a16.32 16.32 0 0 1 -.09 1.71c-.06.52-.14 1-.24 1.53a2.88 2.88 0 0 1 -.09.4q-.06.3-.15.6c-.07.27-.15.53-.24.79a.61.61 0 0 1 0 .11c-.06.19-.13.37-.21.56s-.16.44-.26.66-.16.37-.25.55l-.06.12-.29.58a15.89 15.89 0 0 1 -2.37 3.28c-.1.12-.22.24-.33.35l-.49.48c-.2.19-.41.37-.63.56-.37.31-.76.61-1.15.88-.2.13-.39.27-.6.39a13.69 13.69 0 0 1 -1.63.9l-.54.25a15.33 15.33 0 0 1 -2.28.78l-.41.1c-.33.08-.66.15-1 .2s-.41.07-.61.09l-.66.07h-.56-.81a16.32 16.32 0 0 1 -1.71-.09 14 14 0 0 1 -1.7-.28c-.28-.06-.56-.12-.83-.2s-.53-.15-.79-.24h-.11l-.56-.21-.66-.26-.49-.22-.61-.31c-.26-.13-.51-.28-.76-.43l-.09-.05a12.48 12.48 0 0 1 -1.22-.83 14.29 14.29 0 0 1 -1.36-1.13c-.12-.1-.24-.22-.35-.33l-.48-.49c-.19-.2-.37-.41-.56-.63l-.09-.1a15.93 15.93 0 0 1 -3.68-10.08v-134h-77.32v134a15.93 15.93 0 0 1 -3.63 10.15l-.09.1s0 0 0 0c-.19.22-.37.43-.56.63l-.48.49c-.11.11-.23.23-.35.33a13.14 13.14 0 0 1 -1.36 1.13 11.86 11.86 0 0 1 -1.13.77l-.44.26-.5.28-.61.31-.49.22-.66.26c-.18.08-.37.14-.56.21h-.11c-.26.09-.52.17-.79.24s-.55.14-.83.2a14 14 0 0 1 -1.7.28 16.32 16.32 0 0 1 -1.71.09h-.81-.56l-.66-.07-.61-.09c-.33-.05-.66-.12-1-.2l-.41-.1a15.54 15.54 0 0 1 -2.18-.74c-.22-.09-.43-.18-.64-.29a16 16 0 0 1 -3.39-2.17l-.53-.47c-.12-.1-.23-.21-.34-.32s-.31-.3-.46-.46-.35-.37-.51-.56a15.84 15.84 0 0 1 -2-2.87c-.1-.19-.2-.39-.29-.58a.34.34 0 0 1 -.06-.12c-.09-.18-.17-.37-.25-.55a6 6 0 0 1 -.26-.66c-.08-.19-.15-.37-.21-.56a.26.26 0 0 1 0-.11c-.09-.26-.17-.52-.24-.79s-.15-.55-.21-.83-.11-.56-.16-.85-.08-.56-.11-.85a16.32 16.32 0 0 1 -.09-1.71v-150a16 16 0 0 1 16-16h109.3a16 16 0 0 1 16 16z" fill="#423b32" fill-opacity="1" data-original-color="#423b32ff" stroke="none" stroke-opacity="1"/><path d="m544 249.94a16.32 16.32 0 0 1 -.09 1.71c-.06.52-.14 1-.24 1.53a2.88 2.88 0 0 1 -.09.4q-.06.3-.15.6c-.07.27-.15.53-.24.79a.61.61 0 0 1 0 .11c-.06.19-.13.37-.21.56s-.16.44-.26.66-.16.37-.25.55l-.06.12-.29.58a15.89 15.89 0 0 1 -2.37 3.28c-.1.12-.22.24-.33.35l-.49.48c-.2.19-.41.37-.63.56-.37.31-.76.61-1.15.88-.2.13-.39.27-.6.39a13.69 13.69 0 0 1 -1.63.9l-.54.25a15.33 15.33 0 0 1 -2.28.78l-.41.1c-.33.08-.66.15-1 .2s-.41.07-.61.09l-.66.07h-.56-.81a16.32 16.32 0 0 1 -1.71-.09 14 14 0 0 1 -1.7-.28c-.28-.06-.56-.12-.83-.2s-.53-.15-.79-.24h-.11l-.56-.21-.66-.26-.49-.22-.61-.31c-.26-.13-.51-.28-.76-.43l-.09-.05a12.48 12.48 0 0 1 -1.22-.83 14.29 14.29 0 0 1 -1.36-1.13c-.12-.1-.24-.22-.35-.33l-.48-.49c-.19-.2-.37-.41-.56-.63l-.09-.1-42.29-50.68-42.34 50.7-.09.1s0 0 0 0c-.19.22-.37.43-.56.63l-.48.49c-.11.11-.23.23-.35.33a13.14 13.14 0 0 1 -1.36 1.13 11.86 11.86 0 0 1 -1.13.77l-.44.26-.5.28-.61.31-.49.22-.66.26c-.18.08-.37.14-.56.21h-.11c-.26.09-.52.17-.79.24s-.55.14-.83.2a14 14 0 0 1 -1.7.28 16.32 16.32 0 0 1 -1.71.09h-.81-.56l-.66-.07-.61-.09c-.33-.05-.66-.12-1-.2l-.41-.1a15.54 15.54 0 0 1 -2.18-.74c-.22-.09-.43-.18-.64-.29a16 16 0 0 1 -3.39-2.17l-.53-.47c-.12-.1-.23-.21-.34-.32s-.31-.3-.46-.46-.35-.37-.51-.56a15.84 15.84 0 0 1 -2-2.87c-.1-.19-.2-.39-.29-.58a.34.34 0 0 1 -.06-.12c-.09-.18-.17-.37-.25-.55a6 6 0 0 1 -.26-.66c-.08-.19-.15-.37-.21-.56a.26.26 0 0 1 0-.11c-.09-.26-.17-.52-.24-.79s-.15-.55-.21-.83-.11-.56-.16-.85-.08-.56-.11-.85a16.32 16.32 0 0 1 -.09-1.71 15.91 15.91 0 0 1 3.71-10.24l28.29-33.9 26.37-31.6a16 16 0 0 1 24.57 0l26.36 31.59 28.29 33.9a15.89 15.89 0 0 1 3.71 10.24z" fill="#423b32" fill-opacity="1" data-original-color="#423b32ff" stroke="none" stroke-opacity="1"/></g></g></svg>