<svg id="Layer_1" viewBox="0 0 1000 1000" xmlns="http://www.w3.org/2000/svg" data-name="Layer 1" width="300" height="300" version="1.1" xmlns:xlink="http://www.w3.org/1999/xlink" xmlns:svgjs="http://svgjs.dev/svgjs"><g width="100%" height="100%" transform="matrix(1,0,0,1,0,0)"><path d="m853.83 396.46-238.4 26 141.77-193.55a277.83 277.83 0 0 1 96.63 167.55z" fill="#c21e5c" fill-opacity="1" data-original-color="#c21e5cff" stroke="none" stroke-opacity="1"/><path d="m882.79 527.4-161-24 161.81-17.67a289.94 289.94 0 0 1 -.81 41.67z" fill="#317e3d" fill-opacity="1" data-original-color="#317e3dff" stroke="none" stroke-opacity="1"/><path d="m668.65 204.1-206.47 281.9a16.1 16.1 0 0 0 -2 1.7l-304.18 175.99c-87-167.54-27.3-376.2 137.8-471.53a355.8 355.8 0 0 1 374.85 11.94z" fill="#45b4b1" fill-opacity="1" data-original-color="#ffc50dff" stroke="none" stroke-opacity="1"/><path d="m853.35 617.65a293.58 293.58 0 0 1 -139.86 196.1l-121-235z" fill="#ef4423" fill-opacity="1" data-original-color="#ef4423ff" stroke="none" stroke-opacity="1"/><path d="m620.33 822.84c-161.33 74.68-352.7 18.58-448.33-131.44l293.25-169.68z" fill="#ffc000" fill-opacity="1" data-original-color="#44b3e6ff" stroke="none" stroke-opacity="1"/><g fill="#fff" opacity=".5"><path d="m843.83 406.46-238.4 26 141.77-193.55a277.83 277.83 0 0 1 96.63 167.55z" fill="#ffffff" fill-opacity="1" data-original-color="#ffffffff" stroke="none" stroke-opacity="1"/><path d="m872.79 537.4-161-24 161.81-17.67a289.94 289.94 0 0 1 -.81 41.67z" fill="#ffffff" fill-opacity="1" data-original-color="#ffffffff" stroke="none" stroke-opacity="1"/><path d="m658.65 214.1-206.47 281.9a16.1 16.1 0 0 0 -2 1.7l-304.18 175.99c-87-167.54-27.3-376.2 137.8-471.53a355.8 355.8 0 0 1 374.85 11.94z" fill="#ffffff" fill-opacity="1" data-original-color="#ffffffff" stroke="none" stroke-opacity="1"/><path d="m843.35 627.65a293.58 293.58 0 0 1 -139.86 196.1l-121-235z" fill="#ffffff" fill-opacity="1" data-original-color="#ffffffff" stroke="none" stroke-opacity="1"/><path d="m610.33 832.84c-161.33 74.68-352.7 18.58-448.33-131.44l293.25-169.68z" fill="#ffffff" fill-opacity="1" data-original-color="#ffffffff" stroke="none" stroke-opacity="1"/></g><g fill="#423b32"><path d="m887.82 408.87a309.34 309.34 0 0 0 -124.35-215.61 16 16 0 0 0 -22.36 3.46l-173 236.12a16 16 0 0 0 12.9 25.45 16.9 16.9 0 0 0 1.74-.09l290.85-31.71a16 16 0 0 0 14.22-17.62zm-272.39 13.58 141.77-193.54a277.83 277.83 0 0 1 96.63 167.55z" fill="#423b32" fill-opacity="1" data-original-color="#423b32ff" stroke="none" stroke-opacity="1"/><path d="m914.14 466.32a16 16 0 0 0 -17.64-14.18l-301.5 32.86a16 16 0 0 0 -.63 31.73l300 44.75a15.73 15.73 0 0 0 2.36.18 16 16 0 0 0 15.82-13.66 323.23 323.23 0 0 0 1.59-81.68zm-31.35 61.08-161-24 161.81-17.67a289.94 289.94 0 0 1 -.81 41.67z" fill="#423b32" fill-opacity="1" data-original-color="#423b32ff" stroke="none" stroke-opacity="1"/><path d="m707 197.91a16 16 0 0 0 -6.36-10.46 387.46 387.46 0 0 0 -564.64 506.29 387.1 387.1 0 0 0 513.4 150.49 16 16 0 0 0 6.87-21.54l-165.59-321.48 213.45-291.4a16 16 0 0 0 2.87-11.9zm-244.82 288.09a16.1 16.1 0 0 0 -2 1.7 16.52 16.52 0 0 0 -1.66 2 18.15 18.15 0 0 0 -.76 18.54 15.75 15.75 0 0 0 1.8 2.52l5.68 11 155.09 301.08c-161.33 74.68-352.7 18.58-448.33-131.44q-4.29-6.71-8.3-13.66t-7.7-14c-87-167.59-27.3-376.25 137.8-471.58a355.8 355.8 0 0 1 374.85 11.94z" fill="#423b32" fill-opacity="1" data-original-color="#423b32ff" stroke="none" stroke-opacity="1"/><path d="m874.28 588.42-304-45.36a16.08 16.08 0 0 0 -4.1-.08l-3.44.38a16 16 0 0 0 -12.49 23.23l142.32 276.41a16 16 0 0 0 9.37 7.92 15.81 15.81 0 0 0 4.86.76 16.08 16.08 0 0 0 7.35-1.79c4.76-2.46 9.15-4.86 13.42-7.33a324 324 0 0 0 108.62-101.7 330.53 330.53 0 0 0 51.56-134.31 16 16 0 0 0 -13.47-18.13zm-160.79 225.33-121-235 260.89 38.92a293.58 293.58 0 0 1 -139.89 196.08z" fill="#423b32" fill-opacity="1" data-original-color="#423b32ff" stroke="none" stroke-opacity="1"/><path d="m480.42 512.94-15.17 8.78-293.25 169.68-14.15 8.19a16 16 0 0 1 -21.85-5.84 16 16 0 0 1 5.85-21.85l14.17-8.2 304.2-176 4.2-2.43a16 16 0 0 1 16 27.7z" fill="#423b32" fill-opacity="1" data-original-color="#423b32ff" stroke="none" stroke-opacity="1"/></g></g></svg>