<svg id="Layer_1" viewBox="0 0 1000 1000" xmlns="http://www.w3.org/2000/svg" data-name="Layer 1" width="300" height="300" version="1.1" xmlns:xlink="http://www.w3.org/1999/xlink" xmlns:svgjs="http://svgjs.dev/svgjs"><g width="100%" height="100%" transform="matrix(1,0,0,1,0,0)"><path d="m765.08 116h-530.16c-75.52 294.64 28.17 593 265.08 764.36 236.91-171.36 340.6-469.73 265.08-764.36zm-30.9 245.69a662.58 662.58 0 0 1 -37.3 172.73 647.2 647.2 0 0 1 -75.88 147.58 640.4 640.4 0 0 1 -110.6 122.51 16 16 0 0 1 -20.8 0 640.4 640.4 0 0 1 -110.55-122.51 647.2 647.2 0 0 1 -75.93-147.56 662.58 662.58 0 0 1 -37.3-172.73 701.79 701.79 0 0 1 9.06-179.31 16 16 0 0 1 15.75-13.18h418.74a16 16 0 0 1 15.75 13.18 701.79 701.79 0 0 1 9.06 179.29z" fill="#45b4b1" fill-opacity="1" data-original-color="#2d98d4ff" stroke="none" stroke-opacity="1"/><path d="m695.85 201.2h-391.7c-17.51 110.07-7.53 221.23 29.06 322.33a612.94 612.94 0 0 0 166.79 247.56 612.94 612.94 0 0 0 166.79-247.56c36.59-101.1 46.57-212.26 29.06-322.33zm-67.57 322.09a46.25 46.25 0 0 1 -46.2 46.2h-164.16a46.25 46.25 0 0 1 -46.2-46.2v-117.48a46.27 46.27 0 0 1 42.19-46v-50.49a68.94 68.94 0 0 1 68.87-68.87h34.44a68.94 68.94 0 0 1 68.87 68.87v50.46a46.27 46.27 0 0 1 42.19 46z" fill="#39b54a" fill-opacity="1" data-original-color="#84d2f6ff" stroke="none" stroke-opacity="1"/><path d="m554.09 309.32v50.29h-108.18v-50.29a36.91 36.91 0 0 1 36.87-36.87h34.44a36.91 36.91 0 0 1 36.87 36.87z" fill="#39b54a" fill-opacity="1" data-original-color="#84d2f6ff" stroke="none" stroke-opacity="1"/><rect fill="#ffb300" height="145.88" rx="14.2" width="192.56" x="403.72" y="391.61" fill-opacity="1" data-original-color="#ffc50dff" stroke="none" stroke-opacity="1"/><g fill="#fff" opacity=".5"><path d="m752.48 129h-530.16c-75.52 294.64 28.17 593 265.08 764.36 236.91-171.36 340.6-469.73 265.08-764.36zm-30.9 245.69a662.58 662.58 0 0 1 -37.3 172.73 647.2 647.2 0 0 1 -75.93 147.58 640.4 640.4 0 0 1 -110.55 122.51 16 16 0 0 1 -20.8 0 640.4 640.4 0 0 1 -110.55-122.51 647.2 647.2 0 0 1 -75.93-147.56 662.58 662.58 0 0 1 -37.3-172.73 701.79 701.79 0 0 1 9.06-179.31 16 16 0 0 1 15.72-13.2h418.77a16 16 0 0 1 15.75 13.18 701.79 701.79 0 0 1 9.06 179.31z" fill="#ffffff" fill-opacity="1" data-original-color="#ffffffff" stroke="none" stroke-opacity="1"/><path d="m683.25 214.2h-391.7c-17.55 110.07-7.55 221.23 29.06 322.33a612.94 612.94 0 0 0 166.79 247.56 612.94 612.94 0 0 0 166.79-247.56c36.59-101.1 46.57-212.26 29.06-322.33zm-67.57 322.09a46.25 46.25 0 0 1 -46.2 46.2h-164.16a46.25 46.25 0 0 1 -46.2-46.2v-117.48a46.27 46.27 0 0 1 42.19-46v-50.49a68.94 68.94 0 0 1 68.87-68.87h34.44a68.94 68.94 0 0 1 68.87 68.87v50.46a46.27 46.27 0 0 1 42.19 46z" fill="#ffffff" fill-opacity="1" data-original-color="#ffffffff" stroke="none" stroke-opacity="1"/><path d="m541.49 322.32v50.29h-108.18v-50.29a36.91 36.91 0 0 1 36.87-36.87h34.44a36.91 36.91 0 0 1 36.87 36.87z" fill="#ffffff" fill-opacity="1" data-original-color="#ffffffff" stroke="none" stroke-opacity="1"/><rect height="145.88" rx="14.2" width="192.56" x="391.12" y="404.61" fill="#ffffff" fill-opacity="1" data-original-color="#ffffffff" stroke="none" stroke-opacity="1"/></g><g fill="#423b32"><path d="m586.09 309.32v66.29a16 16 0 0 1 -32 0v-66.29a36.91 36.91 0 0 0 -36.87-36.87h-34.44a36.91 36.91 0 0 0 -36.87 36.87v66.29a16 16 0 0 1 -32 0v-66.29a68.94 68.94 0 0 1 68.87-68.87h34.44a68.94 68.94 0 0 1 68.87 68.87z" fill="#423b32" fill-opacity="1" data-original-color="#423b32ff" stroke="none" stroke-opacity="1"/><path d="m586.09 359.78c-1.32-.11-2.66-.17-4-.17h-164.17c-1.35 0-2.69.06-4 .17a46.27 46.27 0 0 0 -42.19 46v117.51a46.25 46.25 0 0 0 46.2 46.2h164.15a46.25 46.25 0 0 0 46.2-46.2v-117.48a46.27 46.27 0 0 0 -42.19-46.03zm10.19 163.51a14.22 14.22 0 0 1 -14.2 14.2h-164.16a14.22 14.22 0 0 1 -14.2-14.2v-117.48a14.22 14.22 0 0 1 14.2-14.2h164.16a14.22 14.22 0 0 1 14.2 14.2z" fill="#423b32" fill-opacity="1" data-original-color="#423b32ff" stroke="none" stroke-opacity="1"/><path d="m794.92 103.6-2-7.66a16 16 0 0 0 -15.49-11.94h-554.86a16 16 0 0 0 -15.48 11.94l-2 7.66c-40.83 155.63-34.63 314.63 17.91 459.81a728.29 728.29 0 0 0 267.83 349.7 16 16 0 0 0 18.34 0 728.3 728.3 0 0 0 161.51-154.8 729.87 729.87 0 0 0 106.32-194.9c52.54-145.18 58.74-304.18 17.92-459.81zm-294.92 776.76c-236.91-171.36-340.6-469.72-265.08-764.36h530.16c75.52 294.63-28.17 593-265.08 764.36z" fill="#423b32" fill-opacity="1" data-original-color="#423b32ff" stroke="none" stroke-opacity="1"/><path d="m725.12 182.38a16 16 0 0 0 -15.75-13.18h-418.74a16 16 0 0 0 -15.75 13.18 701.79 701.79 0 0 0 -9.06 179.31 662.58 662.58 0 0 0 37.3 172.73 647.2 647.2 0 0 0 75.93 147.58 640.4 640.4 0 0 0 110.55 122.51 16 16 0 0 0 20.8 0 640.4 640.4 0 0 0 110.6-122.51 647.2 647.2 0 0 0 75.93-147.56 662.58 662.58 0 0 0 37.3-172.73 701.79 701.79 0 0 0 -9.11-179.33zm-58.33 341.15a612.94 612.94 0 0 1 -166.79 247.56 612.94 612.94 0 0 1 -166.79-247.56c-36.59-101.1-46.57-212.26-29.06-322.33h391.7c17.51 110.07 7.53 221.23-29.06 322.33z" fill="#423b32" fill-opacity="1" data-original-color="#423b32ff" stroke="none" stroke-opacity="1"/></g></g></svg>