<svg id="Layer_1" viewBox="0 0 1000 1000" xmlns="http://www.w3.org/2000/svg" data-name="Layer 1" width="300" height="300" version="1.1" xmlns:xlink="http://www.w3.org/1999/xlink" xmlns:svgjs="http://svgjs.dev/svgjs"><g width="100%" height="100%" transform="matrix(1,0,0,1,0,0)"><path d="m728.1 116v233.57l-99.65-56a16 16 0 0 0 -15.67 0l-99.65 56v-233.57z" fill="#ffb74d" fill-opacity="1" data-original-color="#ffb74dff" stroke="none" stroke-opacity="1"/><path d="m831.69 116h-71.59v260.91a16 16 0 0 1 -23.84 13.95l-115.64-65-115.62 65a16 16 0 0 1 -23.84-13.95v-260.91h-312.85a52.37 52.37 0 0 0 -52.31 52.31v663.38a52.37 52.37 0 0 0 52.31 52.31h663.38a52.37 52.37 0 0 0 52.31-52.31v-663.38a52.37 52.37 0 0 0 -52.31-52.31zm-608.69 110.4h137.62a16 16 0 1 1 0 32h-137.62a16 16 0 0 1 0-32zm0 134.51h137.62a16 16 0 0 1 0 32h-137.62a16 16 0 1 1 0-32zm521.1 386.16h-521.1a16 16 0 0 1 0-32h521.1a16 16 0 0 1 0 32zm0-154h-521.1a16 16 0 0 1 0-32h521.1a16 16 0 0 1 0 32z" fill="#45b4b1" fill-opacity="1" data-original-color="#fb8c00ff" stroke="none" stroke-opacity="1"/><g fill="#fff" opacity=".5"><path d="m718.1 126v233.57l-99.65-56a16 16 0 0 0 -15.67 0l-99.65 56v-233.57z" fill="#ffffff" fill-opacity="1" data-original-color="#ffffffff" stroke="none" stroke-opacity="1"/><path d="m821.69 126h-71.59v260.91a16 16 0 0 1 -23.84 13.95l-115.64-65-115.62 65a16 16 0 0 1 -23.84-13.95v-260.91h-312.85a52.37 52.37 0 0 0 -52.31 52.31v663.38a52.37 52.37 0 0 0 52.31 52.31h663.38a52.37 52.37 0 0 0 52.31-52.31v-663.38a52.37 52.37 0 0 0 -52.31-52.31zm-608.69 110.4h137.62a16 16 0 1 1 0 32h-137.62a16 16 0 0 1 0-32zm0 134.51h137.62a16 16 0 0 1 0 32h-137.62a16 16 0 1 1 0-32zm521.1 386.16h-521.1a16 16 0 0 1 0-32h521.1a16 16 0 0 1 0 32zm0-154h-521.1a16 16 0 0 1 0-32h521.1a16 16 0 0 1 0 32z" fill="#ffffff" fill-opacity="1" data-original-color="#ffffffff" stroke="none" stroke-opacity="1"/></g><g fill="#413b32"><path d="m831.69 84h-663.38a84.4 84.4 0 0 0 -84.31 84.31v663.38a84.4 84.4 0 0 0 84.31 84.31h663.38a84.4 84.4 0 0 0 84.31-84.31v-663.38a84.4 84.4 0 0 0 -84.31-84.31zm52.31 747.69a52.37 52.37 0 0 1 -52.31 52.31h-663.38a52.37 52.37 0 0 1 -52.31-52.31v-663.38a52.37 52.37 0 0 1 52.31-52.31h663.38a52.37 52.37 0 0 1 52.31 52.31z" fill="#413b32" fill-opacity="1" data-original-color="#413b32ff" stroke="none" stroke-opacity="1"/><path d="m760.1 100v276.91a16 16 0 0 1 -23.84 13.95l-115.64-65-115.62 65a16 16 0 0 1 -23.84-13.95v-276.91a16 16 0 0 1 32 0v249.57l99.65-56a16 16 0 0 1 15.67 0l99.65 56v-249.57a16 16 0 0 1 32 0z" fill="#413b32" fill-opacity="1" data-original-color="#413b32ff" stroke="none" stroke-opacity="1"/><path d="m376.62 242.4a16 16 0 0 1 -16 16h-137.62a16 16 0 0 1 0-32h137.62a16 16 0 0 1 16 16z" fill="#413b32" fill-opacity="1" data-original-color="#413b32ff" stroke="none" stroke-opacity="1"/><path d="m376.62 376.91a16 16 0 0 1 -16 16h-137.62a16 16 0 1 1 0-32h137.62a16 16 0 0 1 16 16z" fill="#413b32" fill-opacity="1" data-original-color="#413b32ff" stroke="none" stroke-opacity="1"/><path d="m760.1 577.11a16 16 0 0 1 -16 16h-521.1a16 16 0 0 1 0-32h521.1a16 16 0 0 1 16 16z" fill="#413b32" fill-opacity="1" data-original-color="#413b32ff" stroke="none" stroke-opacity="1"/><path d="m760.1 731.07a16 16 0 0 1 -16 16h-521.1a16 16 0 0 1 0-32h521.1a16 16 0 0 1 16 16z" fill="#413b32" fill-opacity="1" data-original-color="#413b32ff" stroke="none" stroke-opacity="1"/></g></g></svg>