<svg id="Layer_1" viewBox="0 0 1000 1000" xmlns="http://www.w3.org/2000/svg" data-name="Layer 1" width="300" height="300" version="1.1" xmlns:xlink="http://www.w3.org/1999/xlink" xmlns:svgjs="http://svgjs.dev/svgjs"><g width="100%" height="100%" transform="matrix(1,0,0,1,0,0)"><path d="m825.23 440.18h-7a48.84 48.84 0 0 1 -46.24-33 287.15 287.15 0 0 0 -13.92-33.58 49 49 0 0 1 9.17-56.24l5-5a58.83 58.83 0 0 0 0-83.12l-1.48-1.48a58.83 58.83 0 0 0 -83.12 0l-5 5a49 49 0 0 1 -56.24 9.17 287.15 287.15 0 0 0 -33.54-13.93 48.84 48.84 0 0 1 -33-46.24v-7a58.84 58.84 0 0 0 -58.81-58.76h-2.05a58.84 58.84 0 0 0 -58.77 58.77v7a48.84 48.84 0 0 1 -33 46.24 287.15 287.15 0 0 0 -33.58 13.92 49 49 0 0 1 -56.24-9.17l-5-5a58.83 58.83 0 0 0 -83.12 0l-1.48 1.48a58.83 58.83 0 0 0 0 83.12l5 5a49 49 0 0 1 9.17 56.24 287.15 287.15 0 0 0 -13.98 33.54 48.84 48.84 0 0 1 -46.24 33h-7a58.84 58.84 0 0 0 -58.76 58.86v2.1a58.84 58.84 0 0 0 58.77 58.77h7a48.84 48.84 0 0 1 46.24 33 287.15 287.15 0 0 0 13.92 33.58 49 49 0 0 1 -9.17 56.24l-5 5a58.83 58.83 0 0 0 0 83.12l1.48 1.48a58.83 58.83 0 0 0 83.12 0l5-5a48.72 48.72 0 0 1 34.45-14.29 49.27 49.27 0 0 1 21.75 5.07 287.15 287.15 0 0 0 33.58 13.93 48.84 48.84 0 0 1 33 46.24v7a58.84 58.84 0 0 0 58.86 58.76h2.1a58.84 58.84 0 0 0 58.77-58.77v-7a48.84 48.84 0 0 1 33-46.24 287.15 287.15 0 0 0 33.58-13.92 49 49 0 0 1 56.24 9.17l5 5a58.83 58.83 0 0 0 83.12 0l1.48-1.48a58.83 58.83 0 0 0 0-83.12l-5-5a49 49 0 0 1 -9.17-56.24 287.15 287.15 0 0 0 13.88-33.54 48.84 48.84 0 0 1 46.24-33h7a58.84 58.84 0 0 0 58.76-58.81v-2.05a58.84 58.84 0 0 0 -58.77-58.82zm-151 234.08a246.44 246.44 0 1 1 72.21-174.26 244.81 244.81 0 0 1 -72.18 174.26z" fill="#45b4b1" fill-opacity="1" data-original-color="#fbc02dff" stroke="none" stroke-opacity="1"/><path d="m500 285.56c-118.24 0-214.44 96.2-214.44 214.44s96.2 214.44 214.44 214.44 214.44-96.2 214.44-214.44-96.2-214.44-214.44-214.44zm0 335.71a121.27 121.27 0 1 1 121.27-121.27 121.41 121.41 0 0 1 -121.27 121.27z" fill="#ffb300" fill-opacity="1" data-original-color="#f57f17ff" stroke="none" stroke-opacity="1"/><g fill="#fff" opacity=".5"><path d="m815.23 450.18h-7a48.84 48.84 0 0 1 -46.24-33 287.15 287.15 0 0 0 -13.92-33.58 49 49 0 0 1 9.17-56.24l5-5a58.83 58.83 0 0 0 0-83.12l-1.48-1.48a58.83 58.83 0 0 0 -83.12 0l-5 5a49 49 0 0 1 -56.24 9.17 287.15 287.15 0 0 0 -33.54-13.93 48.84 48.84 0 0 1 -33-46.24v-7a58.84 58.84 0 0 0 -58.81-58.76h-2.05a58.84 58.84 0 0 0 -58.77 58.77v7a48.84 48.84 0 0 1 -33 46.24 287.15 287.15 0 0 0 -33.58 13.92 49 49 0 0 1 -56.24-9.17l-5-5a58.83 58.83 0 0 0 -83.12 0l-1.48 1.48a58.83 58.83 0 0 0 0 83.12l5 5a49 49 0 0 1 9.17 56.24 287.15 287.15 0 0 0 -13.98 33.54 48.84 48.84 0 0 1 -46.24 33h-7a58.84 58.84 0 0 0 -58.76 58.86v2.1a58.84 58.84 0 0 0 58.77 58.77h7a48.84 48.84 0 0 1 46.24 33 287.15 287.15 0 0 0 13.92 33.58 49 49 0 0 1 -9.17 56.24l-5 5a58.83 58.83 0 0 0 0 83.12l1.48 1.48a58.83 58.83 0 0 0 83.12 0l5-5a48.72 48.72 0 0 1 34.45-14.29 49.27 49.27 0 0 1 21.75 5.07 287.15 287.15 0 0 0 33.58 13.93 48.84 48.84 0 0 1 33 46.24v7a58.84 58.84 0 0 0 58.86 58.76h2.1a58.84 58.84 0 0 0 58.77-58.77v-7a48.84 48.84 0 0 1 33-46.24 287.15 287.15 0 0 0 33.58-13.92 49 49 0 0 1 56.24 9.17l5 5a58.83 58.83 0 0 0 83.12 0l1.48-1.48a58.83 58.83 0 0 0 0-83.12l-5-5a49 49 0 0 1 -9.17-56.24 287.15 287.15 0 0 0 13.88-33.54 48.84 48.84 0 0 1 46.24-33h7a58.84 58.84 0 0 0 58.76-58.81v-2.05a58.84 58.84 0 0 0 -58.77-58.82zm-151 234.08a246.44 246.44 0 1 1 72.21-174.26 244.81 244.81 0 0 1 -72.18 174.26z" fill="#ffffff" fill-opacity="1" data-original-color="#ffffffff" stroke="none" stroke-opacity="1"/><path d="m490 295.56c-118.24 0-214.44 96.2-214.44 214.44s96.2 214.44 214.44 214.44 214.44-96.2 214.44-214.44-96.2-214.44-214.44-214.44zm0 335.71a121.27 121.27 0 1 1 121.27-121.27 121.41 121.41 0 0 1 -121.27 121.27z" fill="#ffffff" fill-opacity="1" data-original-color="#ffffffff" stroke="none" stroke-opacity="1"/></g><g fill="#413b32"><path d="m825.23 408.18h-7a16.86 16.86 0 0 1 -16-11.39 318.81 318.81 0 0 0 -15.48-37.34 17 17 0 0 1 3.08-19.5l5-5a90.89 90.89 0 0 0 0-128.38l-1.48-1.48a90.89 90.89 0 0 0 -128.38 0l-5 5a17 17 0 0 1 -19.5 3.08 318.81 318.81 0 0 0 -37.34-15.48 16.86 16.86 0 0 1 -11.39-16v-7a90.87 90.87 0 0 0 -90.69-90.69h-2.05a90.87 90.87 0 0 0 -90.77 90.77v7a16.86 16.86 0 0 1 -11.39 16 318.81 318.81 0 0 0 -37.34 15.48 17 17 0 0 1 -19.5-3.08l-5-5a90.89 90.89 0 0 0 -128.38 0l-1.48 1.48a90.89 90.89 0 0 0 0 128.38l5 5a17 17 0 0 1 3.08 19.5 318.81 318.81 0 0 0 -15.48 37.34 16.86 16.86 0 0 1 -16 11.39h-7a90.87 90.87 0 0 0 -90.74 90.74v2.1a90.87 90.87 0 0 0 90.77 90.77h7a16.86 16.86 0 0 1 16 11.39 318.81 318.81 0 0 0 15.48 37.34 17 17 0 0 1 -3.08 19.5l-5 5a90.89 90.89 0 0 0 0 128.38l1.48 1.48a90.89 90.89 0 0 0 128.38 0l5-5a17 17 0 0 1 19.5-3.08 318.81 318.81 0 0 0 37.34 15.48 16.86 16.86 0 0 1 11.39 16v7a90.87 90.87 0 0 0 90.74 90.64h2.1a90.87 90.87 0 0 0 90.77-90.77v-7a16.86 16.86 0 0 1 11.39-16 318.81 318.81 0 0 0 37.34-15.48 17 17 0 0 1 19.5 3.08l5 5a90.89 90.89 0 0 0 128.38 0l1.48-1.48a90.89 90.89 0 0 0 0-128.38l-5-5a17 17 0 0 1 -3.08-19.5 318.81 318.81 0 0 0 15.48-37.34 16.86 16.86 0 0 1 16-11.39h7a90.87 90.87 0 0 0 90.64-90.69v-2.05a90.87 90.87 0 0 0 -90.77-90.82zm58.77 92.87a58.84 58.84 0 0 1 -58.77 58.77h-7a48.84 48.84 0 0 0 -46.24 33 287.15 287.15 0 0 1 -13.92 33.58 49 49 0 0 0 9.17 56.24l5 5a58.83 58.83 0 0 1 0 83.12l-1.48 1.48a58.83 58.83 0 0 1 -83.12 0l-5-5a49 49 0 0 0 -56.24-9.17 287.15 287.15 0 0 1 -33.54 13.93 48.84 48.84 0 0 0 -33 46.24v7a58.84 58.84 0 0 1 -58.81 58.76h-2.05a58.84 58.84 0 0 1 -58.77-58.77v-7a48.84 48.84 0 0 0 -33-46.24 287.15 287.15 0 0 1 -33.58-13.92 49.27 49.27 0 0 0 -21.84-5.07 48.72 48.72 0 0 0 -34.49 14.24l-5 5a58.83 58.83 0 0 1 -83.12 0l-1.48-1.48a58.83 58.83 0 0 1 0-83.12l5-5a49 49 0 0 0 9.17-56.24 287.15 287.15 0 0 1 -13.89-33.54 48.84 48.84 0 0 0 -46.24-33h-7a58.84 58.84 0 0 1 -58.76-58.81v-2.05a58.84 58.84 0 0 1 58.77-58.77h7a48.84 48.84 0 0 0 46.24-33 287.15 287.15 0 0 1 13.92-33.58 49 49 0 0 0 -9.17-56.24l-5-5a58.83 58.83 0 0 1 0-83.12l1.48-1.48a58.83 58.83 0 0 1 83.12 0l5 5a49 49 0 0 0 56.24 9.17 287.15 287.15 0 0 1 33.54-13.98 48.84 48.84 0 0 0 33-46.24v-7a58.84 58.84 0 0 1 58.86-58.76h2.1a58.84 58.84 0 0 1 58.77 58.77v7a48.84 48.84 0 0 0 33 46.24 287.15 287.15 0 0 1 33.58 13.92 49 49 0 0 0 56.24-9.17l5-5a58.83 58.83 0 0 1 83.12 0l1.48 1.48a58.83 58.83 0 0 1 0 83.12l-5 5a49 49 0 0 0 -9.17 56.24 287.15 287.15 0 0 1 13.88 33.54 48.84 48.84 0 0 0 46.24 33h7a58.84 58.84 0 0 1 58.76 58.86z" fill="#413b32" fill-opacity="1" data-original-color="#413b32ff" stroke="none" stroke-opacity="1"/><path d="m674.26 325.74a246.44 246.44 0 1 0 72.18 174.26 244.81 244.81 0 0 0 -72.18-174.26zm-174.26 388.7c-118.24 0-214.44-96.2-214.44-214.44s96.2-214.44 214.44-214.44 214.44 96.2 214.44 214.44-96.2 214.44-214.44 214.44z" fill="#413b32" fill-opacity="1" data-original-color="#413b32ff" stroke="none" stroke-opacity="1"/><path d="m500 378.73a121.27 121.27 0 1 0 121.27 121.27 121.41 121.41 0 0 0 -121.27-121.27zm0 210.54a89.27 89.27 0 1 1 89.27-89.27 89.36 89.36 0 0 1 -89.27 89.27z" fill="#413b32" fill-opacity="1" data-original-color="#413b32ff" stroke="none" stroke-opacity="1"/></g></g></svg>