<svg clip-rule="evenodd" fill-rule="evenodd" height="300" image-rendering="optimizeQuality" shape-rendering="geometricPrecision" text-rendering="geometricPrecision" viewBox="0 0 2048 2048" width="300" xmlns="http://www.w3.org/2000/svg" version="1.1" xmlns:xlink="http://www.w3.org/1999/xlink" xmlns:svgjs="http://svgjs.dev/svgjs"><g width="100%" height="100%" transform="matrix(1,0,0,1,0,0)"><path d="m0 0h2048v2048h-2048z" fill="none" fill-opacity="1" stroke="none" stroke-opacity="1"/><g id="Layer_x0020_1"><g id="_497683440" fill="#013668"><path id="_497684328" d="m1265.9 372.575c71.1544 0 135.461 32.1567 181.905 84.1465 45.8162 51.287 74.1567 121.882 74.1567 199.622 0 77.739-28.3406 148.334-74.1567 199.621-46.4445 51.9898-110.751 84.1465-181.905 84.1465-71.1544 0-135.461-32.1567-181.905-84.1465-45.8162-51.287-74.1567-121.882-74.1567-199.621 0-77.7402 28.3406-148.335 74.1567-199.622 46.4445-51.9898 110.751-84.1465 181.905-84.1465zm146.281 116.022c-37.5437-42.0272-89.2725-68.0221-146.281-68.0221-57.0083 0-108.737 25.9949-146.281 68.0221-38.1697 42.7288-61.7811 102.021-61.7811 167.746 0 65.7237 23.6114 125.016 61.7811 167.745 37.5437 42.0272 89.2725 68.0221 146.281 68.0221 57.0083 0 108.737-25.9949 146.281-68.0221 38.1697-42.7288 61.7811-102.021 61.7811-167.745 0-65.7249-23.6114-125.017-61.7811-167.746z" fill="#013668" fill-opacity="1" data-original-color="#013668ff" stroke="none" stroke-opacity="1"/><path id="_497684784" d="m1768 1675.42h-1004.19-24.9508l1.0441-24.9378c14.7354-351.712 145.047-583.27 308.894-689.89 69.4193-45.1725 144.927-68.0788 220.514-68.4095 75.7064-.33189 151.13 21.9402 220.246 67.1197 160.5 104.914 287.397 334.211 302.352 691.179l1.0441 24.9378h-24.9508zm-979.012-48h953.842c-18.8244-325.157-134.424-533.143-279.527-627.993-61.193-40.0004-127.553-59.7213-193.808-59.4308-66.3756.28937-133.017 20.6221-194.639 60.7205-148.241 96.4631-267.018 306.398-285.868 626.703z" fill="#013668" fill-opacity="1" data-original-color="#013668ff" stroke="none" stroke-opacity="1"/><path id="_497684712" d="m704.168 593.597c60.9473 0 116.089 25.9595 155.968 67.9288 39.5894 41.6634 64.076 99.0875 64.076 162.39 0 63.3024-24.4866 120.728-64.076 162.391-39.8788 41.9693-95.0209 67.93-155.968 67.93-60.9461 0-116.088-25.9606-155.967-67.93-39.5882-41.6646-64.076-99.0887-64.076-162.391 0-63.3024 24.4878-120.725 64.076-162.39 39.8788-41.9693 95.0209-67.9288 155.967-67.9288zm121.282 100.929c-31.0725-32.7012-73.956-52.9288-121.282-52.9288-47.3244 0-90.2079 20.2276-121.28 52.9288-31.363 33.0071-50.7626 78.7453-50.7626 129.39 0 50.6445 19.3996 96.3839 50.7626 129.391 31.0725 32.7024 73.9571 52.93 121.28 52.93 47.3244 0 90.2091-20.2276 121.282-52.93 31.363-33.0059 50.7626-78.7477 50.7626-129.391s-19.3996-96.3839-50.7626-129.39z" fill="#013668" fill-opacity="1" data-original-color="#013668ff" stroke="none" stroke-opacity="1"/><path id="_497684424" d="m763.808 1675.42h-483.808-24.9508l1.0441-24.9378c9.5752-228.554 76.6595-397.317 169.902-504.367 41.9445-48.1548 89.3658-84.0024 139.456-107.376 50.5583-23.5914 103.643-34.3536 156.436-32.1425 76.3477 3.19843 151.748 33.3048 217.689 90.7406l16.4351 14.315-12.7784 17.7473c-44.289 61.5119-81.7477 137.912-108.977 229.12-25.474 85.3241-41.9114 183.306-46.5414 293.838l-.964961 23.0622h-22.9417zm-458.596-48h435.832c6.02363-105.576 22.5603-199.805 47.2748-282.587 26.1201-87.4914 61.4552-162.496 103.254-224.874-53.3504-41.3103-112.338-63.0686-171.561-65.5489-45.267-1.89567-90.8422 7.36064-134.309 27.6425-43.9335 20.5004-85.917 52.3914-123.521 95.5631-83.3658 95.7107-144.31 246-156.97 449.804z" fill="#013668" fill-opacity="1" data-original-color="#013668ff" stroke="none" stroke-opacity="1"/></g><path d="m462.181 1177.62c-83.3658 95.7107-144.31 246-156.97 449.804h435.832c.298819-5.24528.624804-10.4634.975591-15.6532 6.71103-99.2587 22.813-188.264 46.2992-266.934 10.3146-34.5508 22.0666-67.154 35.087-97.8024 19.9347-47.0079 42.8315-89.3977 68.0882-127.133-53.3292-41.2701-112.289-63.0083-171.482-65.4875-3.56103-.148819-7.12323-.229134-10.6866-.240945-1.71378.0413386-3.43347.0625985-5.1567.0625985-.470079 0-.940158-.0011811-1.40906-.00472441-39.554.816142-79.1091 10.1185-117.057 27.8256-43.9335 20.5004-85.917 52.3914-123.521 95.5631z" fill="#ffd23f" fill-opacity="1" data-original-color="#80cbc4ff" stroke="none" stroke-opacity="1"/><path d="m943.233 1129.4c-44.289 61.5119-81.7477 137.912-108.977 229.12-18.4441 61.7776-32.1508 130.189-40.0689 205.198-2.17795 20.7248-3.9189 41.9599-5.19804 63.7028h953.842c-18.8244-325.157-134.424-533.143-279.527-627.993-60.117-39.2965-125.221-59.0209-190.312-59.4272-2.35512.0708662-4.71733.106299-7.0878.106299-.966142 0-1.9311-.00590552-2.89607-.0177165-64.2249 1.54252-128.537 21.8362-188.151 60.6284-43.8662 28.5437-85.1516 67.0241-122.032 115.36l-9.59292 13.3228z" fill="#45b4b1" fill-opacity="1" data-original-color="#fac23cff" stroke="none" stroke-opacity="1"/><g fill="#e0e0e0"><path d="m1057.84 656.344c0 65.7237 23.6114 125.016 61.7811 167.745 37.5437 42.0272 89.2725 68.0221 146.281 68.0221 57.0083 0 108.737-25.9949 146.281-68.0221 38.1697-42.7288 61.7811-102.021 61.7811-167.745 0-65.7249-23.6114-125.017-61.7811-167.746-37.5437-42.0272-89.2725-68.0221-146.281-68.0221-57.0083 0-108.737 25.9949-146.281 68.0221-38.1697 42.7288-61.7811 102.021-61.7811 167.746z" fill="#e0e0e0" fill-opacity="1" data-original-color="#e0e0e0ff" stroke="none" stroke-opacity="1"/><path d="m582.887 694.525c-31.363 33.0071-50.7626 78.7453-50.7626 129.39 0 50.6445 19.3996 96.3839 50.7626 129.391 31.0725 32.7024 73.9571 52.93 121.28 52.93 47.3244 0 90.2091-20.2276 121.282-52.93 31.363-33.0059 50.7626-78.7477 50.7626-129.391s-19.3996-96.3839-50.7626-129.39c-31.0725-32.7012-73.956-52.9288-121.282-52.9288-47.3244 0-90.2079 20.2276-121.28 52.9288z" fill="#e0e0e0" fill-opacity="1" data-original-color="#e0e0e0ff" stroke="none" stroke-opacity="1"/></g></g></g></svg>